%TF.GenerationSoftware,KiCad,Pcbnew,8.0.8*%
%TF.CreationDate,2025-01-28T10:28:21+01:00*%
%TF.ProjectId,PoolClock,506f6f6c-436c-46f6-936b-2e6b69636164,1.0*%
%TF.SameCoordinates,Original*%
%TF.FileFunction,Drillmap*%
%TF.FilePolarity,Positive*%
%FSLAX45Y45*%
G04 Gerber Fmt 4.5, Leading zero omitted, Abs format (unit mm)*
G04 Created by KiCad (PCBNEW 8.0.8) date 2025-01-28 10:28:21*
%MOMM*%
%LPD*%
G01*
G04 APERTURE LIST*
%ADD10C,0.050000*%
%ADD11C,0.200000*%
G04 APERTURE END LIST*
D10*
X7550000Y-5500000D02*
X17550000Y-5500000D01*
X17550000Y-14000000D01*
X7550000Y-14000000D01*
X7550000Y-5500000D01*
D11*
X7808277Y-14313984D02*
X7808277Y-14113984D01*
X7808277Y-14113984D02*
X7855896Y-14113984D01*
X7855896Y-14113984D02*
X7884467Y-14123508D01*
X7884467Y-14123508D02*
X7903515Y-14142555D01*
X7903515Y-14142555D02*
X7913039Y-14161603D01*
X7913039Y-14161603D02*
X7922562Y-14199698D01*
X7922562Y-14199698D02*
X7922562Y-14228269D01*
X7922562Y-14228269D02*
X7913039Y-14266365D01*
X7913039Y-14266365D02*
X7903515Y-14285412D01*
X7903515Y-14285412D02*
X7884467Y-14304460D01*
X7884467Y-14304460D02*
X7855896Y-14313984D01*
X7855896Y-14313984D02*
X7808277Y-14313984D01*
X8008277Y-14313984D02*
X8008277Y-14180650D01*
X8008277Y-14218746D02*
X8017801Y-14199698D01*
X8017801Y-14199698D02*
X8027324Y-14190174D01*
X8027324Y-14190174D02*
X8046372Y-14180650D01*
X8046372Y-14180650D02*
X8065420Y-14180650D01*
X8132086Y-14313984D02*
X8132086Y-14180650D01*
X8132086Y-14113984D02*
X8122562Y-14123508D01*
X8122562Y-14123508D02*
X8132086Y-14133031D01*
X8132086Y-14133031D02*
X8141610Y-14123508D01*
X8141610Y-14123508D02*
X8132086Y-14113984D01*
X8132086Y-14113984D02*
X8132086Y-14133031D01*
X8255896Y-14313984D02*
X8236848Y-14304460D01*
X8236848Y-14304460D02*
X8227324Y-14285412D01*
X8227324Y-14285412D02*
X8227324Y-14113984D01*
X8360658Y-14313984D02*
X8341610Y-14304460D01*
X8341610Y-14304460D02*
X8332086Y-14285412D01*
X8332086Y-14285412D02*
X8332086Y-14113984D01*
X8589229Y-14313984D02*
X8589229Y-14113984D01*
X8589229Y-14113984D02*
X8655896Y-14256841D01*
X8655896Y-14256841D02*
X8722563Y-14113984D01*
X8722563Y-14113984D02*
X8722563Y-14313984D01*
X8903515Y-14313984D02*
X8903515Y-14209222D01*
X8903515Y-14209222D02*
X8893991Y-14190174D01*
X8893991Y-14190174D02*
X8874944Y-14180650D01*
X8874944Y-14180650D02*
X8836848Y-14180650D01*
X8836848Y-14180650D02*
X8817801Y-14190174D01*
X8903515Y-14304460D02*
X8884467Y-14313984D01*
X8884467Y-14313984D02*
X8836848Y-14313984D01*
X8836848Y-14313984D02*
X8817801Y-14304460D01*
X8817801Y-14304460D02*
X8808277Y-14285412D01*
X8808277Y-14285412D02*
X8808277Y-14266365D01*
X8808277Y-14266365D02*
X8817801Y-14247317D01*
X8817801Y-14247317D02*
X8836848Y-14237793D01*
X8836848Y-14237793D02*
X8884467Y-14237793D01*
X8884467Y-14237793D02*
X8903515Y-14228269D01*
X8998753Y-14180650D02*
X8998753Y-14380650D01*
X8998753Y-14190174D02*
X9017801Y-14180650D01*
X9017801Y-14180650D02*
X9055896Y-14180650D01*
X9055896Y-14180650D02*
X9074944Y-14190174D01*
X9074944Y-14190174D02*
X9084467Y-14199698D01*
X9084467Y-14199698D02*
X9093991Y-14218746D01*
X9093991Y-14218746D02*
X9093991Y-14275888D01*
X9093991Y-14275888D02*
X9084467Y-14294936D01*
X9084467Y-14294936D02*
X9074944Y-14304460D01*
X9074944Y-14304460D02*
X9055896Y-14313984D01*
X9055896Y-14313984D02*
X9017801Y-14313984D01*
X9017801Y-14313984D02*
X8998753Y-14304460D01*
X9179705Y-14294936D02*
X9189229Y-14304460D01*
X9189229Y-14304460D02*
X9179705Y-14313984D01*
X9179705Y-14313984D02*
X9170182Y-14304460D01*
X9170182Y-14304460D02*
X9179705Y-14294936D01*
X9179705Y-14294936D02*
X9179705Y-14313984D01*
X9179705Y-14190174D02*
X9189229Y-14199698D01*
X9189229Y-14199698D02*
X9179705Y-14209222D01*
X9179705Y-14209222D02*
X9170182Y-14199698D01*
X9170182Y-14199698D02*
X9179705Y-14190174D01*
X9179705Y-14190174D02*
X9179705Y-14209222D01*
M02*
