<?xml version="1.0" standalone="no"?>
<!DOCTYPE svg PUBLIC "-//W3C//DTD SVG 20010904//EN"
 "http://www.w3.org/TR/2001/REC-SVG-20010904/DTD/svg10.dtd">
<svg version="1.0" xmlns="http://www.w3.org/2000/svg"
 width="246.000000pt" height="240.000000pt" viewBox="0 0 246.000000 240.000000"
 preserveAspectRatio="xMidYMid meet">

<g transform="translate(0.000000,240.000000) scale(0.100000,-0.100000)"
fill="#FFFFFF" stroke="none">
<path d="M995 2084 c-121 -101 -223 -184 -227 -184 -5 0 -8 45 -8 101 l0 101
-34 34 -34 34 -126 0 c-134 0 -175 -10 -196 -49 -6 -12 -10 -124 -10 -290 l0
-271 -122 -101 c-68 -56 -128 -111 -135 -123 -39 -68 13 -156 91 -156 34 0 69
27 572 442 l456 377 87 -73 c74 -63 687 -569 839 -693 79 -64 129 -69 178 -16
29 32 33 97 6 129 -14 18 -370 313 -822 684 -63 51 -154 127 -202 167 -47 40
-88 73 -90 72 -2 0 -102 -83 -223 -185z"/>
<path d="M1119 1768 c-39 -20 -229 -175 -850 -690 -92 -76 -170 -145 -173
-154 -3 -8 -6 -31 -6 -51 0 -83 104 -123 177 -67 l33 25 0 -274 c0 -311 7
-353 65 -412 67 -67 56 -66 881 -63 l739 3 47 28 c31 18 57 44 75 75 l28 47 3
297 3 298 33 -25 c73 -55 176 -14 176 70 0 63 72 -3 -702 637 -161 132 -311
249 -333 259 -57 26 -141 25 -196 -3z m186 -312 c61 -40 60 -29 63 -516 2
-414 3 -447 21 -480 27 -51 34 -93 21 -139 -23 -86 -115 -150 -201 -138 -128
17 -199 162 -134 276 l25 43 0 442 c0 413 1 443 19 472 37 60 126 80 186 40z
m-290 -211 c0 -19 -8 -20 -119 -23 -121 -3 -144 3 -133 33 6 13 24 15 129 13
115 -3 123 -4 123 -23z m855 -5 c42 -42 12 -120 -47 -120 -34 0 -73 36 -73 69
0 59 78 93 120 51z m-176 -80 c45 -22 71 -53 82 -94 6 -24 4 -26 -25 -26 -24
0 -34 6 -43 25 -25 56 -125 70 -174 24 -24 -22 -24 -26 -24 -206 0 -169 2
-185 20 -203 11 -11 31 -22 45 -26 56 -14 135 17 135 53 0 8 12 13 35 13 40 0
43 -11 15 -57 -61 -100 -247 -96 -301 7 -16 30 -19 58 -19 207 0 97 5 184 11
200 34 91 148 130 243 83z m-679 -30 c0 -12 -17 -16 -79 -18 -78 -3 -105 5
-91 28 4 7 36 10 88 8 65 -2 82 -6 82 -18z m0 -120 c0 -12 -17 -16 -79 -18
-78 -3 -105 5 -91 28 4 7 36 10 88 8 65 -2 82 -6 82 -18z m0 -115 c0 -19 -8
-20 -119 -23 -121 -3 -144 3 -133 33 6 13 24 15 129 13 115 -3 123 -4 123 -23z
m0 -115 c0 -12 -17 -16 -79 -18 -78 -3 -105 5 -91 28 4 7 36 10 88 8 65 -2 82
-6 82 -18z m0 -115 c0 -18 -8 -20 -79 -23 -81 -3 -103 5 -92 33 5 13 20 15 88
13 75 -3 83 -5 83 -23z m0 -115 c0 -12 -21 -16 -119 -18 -115 -3 -146 4 -131
27 4 8 47 11 128 9 101 -3 122 -6 122 -18z"/>
<path d="M1194 1440 c-12 -4 -31 -21 -43 -36 -21 -26 -21 -32 -21 -469 l0
-443 -25 -43 c-32 -56 -33 -115 -2 -159 51 -76 122 -97 197 -58 84 43 107 135
56 222 l-27 46 2 439 c0 308 -2 445 -10 460 -13 24 -61 51 -88 50 -10 0 -28
-4 -39 -9z m86 -450 c19 -19 20 -33 20 -265 0 -244 0 -244 25 -281 69 -102
-17 -229 -131 -192 -54 18 -87 69 -81 126 3 25 14 53 26 66 20 21 21 31 21
279 0 253 0 256 22 271 31 22 74 20 98 -4z"/>
<path d="M1201 382 c-20 -38 31 -71 59 -37 6 8 9 23 5 35 -8 25 -51 27 -64 2z"/>
<path d="M1790 1215 c-26 -32 13 -81 48 -59 34 22 22 74 -18 74 -10 0 -23 -7
-30 -15z"/>
</g>
</svg>
