<?xml version="1.0" standalone="no"?>
<!DOCTYPE svg PUBLIC "-//W3C//DTD SVG 20010904//EN"
 "http://www.w3.org/TR/2001/REC-SVG-20010904/DTD/svg10.dtd">
<svg version="1.0" xmlns="http://www.w3.org/2000/svg"
 width="300.000000pt" height="300.000000pt" viewBox="0 0 300.000000 300.000000"
 preserveAspectRatio="xMidYMid meet">

<g transform="translate(0.000000,300.000000) scale(0.100000,-0.100000)"
fill="#FFFFFF" stroke="none">
<path d="M1969 2772 c-110 -37 -191 -112 -235 -220 -23 -57 -24 -60 -24 -473
l0 -416 -38 -27 c-64 -44 -124 -59 -215 -54 -92 5 -132 22 -211 87 -26 23 -59
41 -72 41 -13 0 -46 -20 -79 -50 -75 -65 -132 -84 -239 -78 -92 5 -137 24
-211 88 -26 22 -57 40 -70 40 -14 0 -46 -20 -80 -49 -61 -53 -125 -81 -187
-81 -92 0 -141 -71 -88 -128 17 -18 32 -22 84 -22 77 0 145 19 216 63 l56 33
44 -28 c148 -94 376 -93 516 2 l42 28 43 -29 c104 -70 278 -91 409 -50 36 12
68 21 73 21 4 0 7 -42 7 -93 0 -91 -1 -94 -31 -123 -17 -16 -51 -56 -75 -90
-113 -157 -141 -346 -79 -531 139 -414 663 -538 970 -229 117 118 175 255 175
416 0 149 -55 290 -155 398 l-55 60 0 100 0 101 48 -21 c30 -14 75 -23 128
-26 75 -4 83 -3 103 19 54 58 6 129 -87 129 -50 0 -116 23 -158 55 l-33 25 -3
418 c-3 409 -3 418 -26 474 -32 79 -108 160 -187 199 -82 40 -192 49 -276 21z
m201 -153 c56 -25 86 -53 113 -104 22 -39 22 -49 22 -450 l0 -410 -55 -32
c-97 -59 -90 -86 -90 337 l0 371 -25 24 c-30 31 -71 32 -102 3 l-23 -21 0
-374 c0 -328 -2 -373 -15 -373 -25 0 -88 29 -112 52 l-23 21 0 401 c0 375 2
404 20 441 56 118 177 165 290 114z m-217 -1176 l57 -16 0 -183 0 -182 -44
-26 c-85 -50 -126 -121 -126 -219 0 -111 68 -201 175 -232 203 -59 382 155
286 343 -22 43 -87 106 -120 117 -20 6 -21 12 -21 195 l0 189 43 11 c23 6 52
15 65 20 13 6 27 10 32 10 6 0 10 -55 10 -131 l0 -131 55 -50 c102 -94 155
-209 155 -338 0 -216 -153 -395 -370 -432 -138 -24 -270 20 -376 126 -104 105
-149 240 -125 376 18 99 58 173 141 256 l70 72 0 127 c0 117 1 127 18 120 9
-3 43 -13 75 -22z m194 -557 c22 -19 28 -33 28 -64 0 -69 -58 -112 -121 -92
-43 15 -64 45 -64 93 0 80 94 117 157 63z"/>
<path d="M527 2570 c-14 -11 -37 -43 -51 -72 -48 -97 -31 -220 44 -304 51 -58
52 -110 5 -180 -30 -43 -27 -78 7 -106 50 -43 109 -11 153 85 45 95 28 202
-45 291 -50 60 -54 112 -15 170 14 20 25 50 25 66 0 62 -71 91 -123 50z"/>
<path d="M912 2565 c-43 -36 -74 -116 -74 -189 1 -76 12 -106 65 -175 36 -46
42 -61 42 -102 0 -35 -6 -53 -22 -71 -13 -13 -26 -38 -29 -55 -5 -26 -1 -37
19 -57 52 -52 109 -27 160 69 17 31 22 58 22 115 0 82 -15 120 -74 194 -41 51
-43 113 -6 162 32 41 32 84 2 112 -31 29 -69 28 -105 -3z"/>
<path d="M1302 2565 c-47 -39 -75 -109 -76 -185 0 -73 19 -121 80 -205 42 -58
42 -93 -1 -154 -30 -45 -32 -70 -4 -105 71 -91 204 65 185 218 -7 50 -40 119
-88 179 -31 38 -29 96 6 145 32 47 33 82 3 110 -31 29 -69 28 -105 -3z"/>
<path d="M989 1212 c-138 -72 -160 -258 -44 -360 97 -85 216 -82 305 8 89 88
93 212 12 302 -74 82 -176 101 -273 50z m156 -147 c14 -13 25 -36 25 -50 0
-33 -42 -75 -75 -75 -33 0 -75 41 -75 73 0 68 78 100 125 52z"/>
<path d="M508 878 c-47 -12 -113 -70 -139 -120 -27 -53 -27 -143 0 -195 41
-81 112 -123 206 -123 85 0 158 46 198 125 60 120 -6 271 -136 310 -57 17 -76
17 -129 3z m116 -168 c44 -43 11 -120 -51 -120 -84 0 -102 114 -23 143 21 8
52 -2 74 -23z"/>
</g>
</svg>
