<?xml version="1.0" standalone="no"?>
<!DOCTYPE svg PUBLIC "-//W3C//DTD SVG 20010904//EN"
 "http://www.w3.org/TR/2001/REC-SVG-20010904/DTD/svg10.dtd">
<svg version="1.0" xmlns="http://www.w3.org/2000/svg"
 width="980.000000pt" height="980.000000pt" viewBox="0 0 980.000000 980.000000"
 preserveAspectRatio="xMidYMid meet">
<metadata>
Created by potrace 1.14, written by Peter Selinger 2001-2017
</metadata>
<g transform="translate(0.000000,980.000000) scale(0.100000,-0.100000)"
fill="#000000" stroke="none">
<path d="M3520 7256 l0 -195 -1552 -4 c-1081 -3 -1573 -8 -1618 -16 -135 -23
-238 -98 -295 -215 -35 -69 -36 -78 -46 -232 -15 -245 -6 -3453 10 -3523 26
-115 104 -222 194 -268 92 -46 160 -55 475 -60 l292 -5 0 -194 0 -194 590 0
590 0 0 195 0 195 2740 0 2740 0 0 -195 0 -195 590 0 590 0 0 194 0 194 293 5
c315 5 383 14 475 61 70 35 119 88 159 172 32 66 35 82 43 215 12 188 12 3231
0 3419 -9 136 -11 148 -45 217 -57 116 -160 191 -295 214 -45 8 -537 13 -1617
16 l-1553 4 0 195 0 194 -1380 0 -1380 0 0 -194z m3848 -606 l2022 0 0 -1750
0 -1750 -4488 0 -4489 0 -6 737 c-9 941 -9 2532 -1 2651 5 70 11 93 23 98 31
14 1413 22 3156 18 968 -2 2670 -4 3783 -4z"/>
<path d="M1630 6271 c-220 -9 -259 -17 -311 -67 -15 -14 -35 -43 -44 -65 -17
-37 -17 -40 0 -59 23 -26 154 -76 236 -90 38 -7 248 -14 514 -17 l450 -6 52
144 c28 79 48 147 44 151 -10 11 -709 17 -941 9z"/>
<path d="M5600 6269 c-405 -8 -423 -10 -471 -58 -44 -43 -69 -112 -50 -135 17
-21 153 -72 225 -85 62 -12 899 -16 952 -5 27 5 33 15 72 122 48 135 50 150
20 156 -44 9 -416 12 -748 5z"/>
<path d="M7510 6270 c-237 -4 -405 -11 -421 -18 -40 -16 -87 -61 -116 -109
l-26 -45 22 -17 c32 -24 154 -70 231 -88 49 -11 174 -16 521 -20 l456 -6 51
144 c29 79 52 150 52 157 0 13 -72 14 -770 2z"/>
<path d="M6442 6233 c-98 -263 -102 -289 -102 -752 l0 -327 99 -97 c80 -79
104 -97 128 -97 17 0 35 6 41 13 46 55 55 962 12 1151 -11 48 -36 84 -80 114
-47 31 -85 29 -98 -5z"/>
<path d="M8346 6238 c-8 -13 -28 -63 -45 -112 -42 -118 -51 -234 -51 -647 l0
-326 99 -96 c82 -79 105 -97 130 -97 22 0 35 7 48 27 15 23 19 62 24 292 8
362 -4 780 -25 847 -18 58 -54 99 -104 120 -47 19 -59 18 -76 -8z"/>
<path d="M2664 6236 c-11 -8 -34 -45 -52 -83 -57 -125 -63 -178 -69 -608 l-5
-390 100 -97 c79 -77 107 -98 129 -98 40 0 53 12 64 56 14 58 23 774 11 956
-11 171 -20 199 -83 253 -34 28 -65 32 -95 11z"/>
<path d="M5043 5533 c5 -474 10 -540 41 -571 14 -14 19 -14 50 0 19 10 80 60
135 114 l101 96 -1 172 c-1 94 -4 256 -8 360 l-6 189 -155 58 c-85 33 -157 59
-159 59 -2 0 -1 -215 2 -477z"/>
<path d="M1241 5733 c0 -148 4 -369 7 -493 8 -254 14 -280 73 -280 25 0 48 18
130 97 l99 96 0 372 c0 346 -1 373 -17 380 -66 26 -267 95 -279 95 -12 0 -14
-41 -13 -267z"/>
<path d="M6953 5523 c3 -300 9 -491 16 -512 12 -40 26 -51 64 -51 22 0 49 21
128 97 l99 96 0 372 0 372 -143 51 c-78 29 -148 52 -156 52 -11 0 -13 -78 -8
-477z"/>
<path d="M3790 5510 l0 -150 155 0 155 0 0 150 0 150 -155 0 -155 0 0 -150z"/>
<path d="M2725 4822 c-22 -17 -73 -64 -114 -105 l-74 -75 6 -389 c6 -437 13
-487 75 -613 42 -86 73 -106 119 -80 38 22 83 82 94 126 15 59 22 714 11 921
-14 244 -32 278 -117 215z"/>
<path d="M5074 4825 c-23 -36 -33 -224 -34 -662 0 -205 1 -373 3 -373 1 0 72
26 157 59 l155 58 6 189 c4 104 7 266 8 360 l1 171 -114 111 c-124 122 -151
134 -182 87z"/>
<path d="M6444 4748 l-104 -101 0 -331 c0 -182 5 -374 10 -426 14 -129 60
-268 108 -322 36 -42 112 -5 155 76 22 41 22 43 22 586 0 491 -2 549 -17 583
-28 62 -53 53 -174 -65z"/>
<path d="M6984 4825 c-13 -20 -19 -64 -25 -183 -12 -229 -11 -842 1 -842 5 0
71 23 145 51 129 50 135 53 139 83 3 17 7 184 10 372 l6 341 -104 101 c-113
112 -141 124 -172 77z"/>
<path d="M8354 4748 l-106 -103 5 -410 c3 -225 10 -431 16 -456 16 -76 75
-221 93 -232 20 -13 87 14 123 51 47 46 56 105 65 397 4 149 4 387 1 530 -8
287 -14 317 -64 323 -23 3 -44 -13 -133 -100z"/>
<path d="M3900 3836 l-105 -11 -3 -152 -3 -153 156 0 156 0 -3 151 c-4 198 9
187 -198 165z"/>
<path d="M5395 3830 c-74 -9 -189 -43 -272 -80 -72 -33 -78 -49 -40 -115 30
-53 85 -82 183 -97 89 -13 976 -17 1057 -4 37 6 47 11 47 26 0 23 -75 219 -93
243 -11 16 -47 19 -327 27 -351 11 -467 11 -555 0z"/>
<path d="M7270 3823 c-148 -23 -303 -83 -308 -119 -3 -19 25 -66 80 -135 l27
-34 608 -7 c334 -4 608 -6 609 -5 2 1 -19 61 -46 132 -33 88 -57 137 -75 153
l-26 22 -422 -1 c-232 -1 -433 -3 -447 -6z"/>
</g>
</svg>
