%TF.GenerationSoftware,KiCad,Pcbnew,8.0.8*%
%TF.CreationDate,2025-01-29T09:19:24+01:00*%
%TF.ProjectId,PoolClock,506f6f6c-436c-46f6-936b-2e6b69636164,1.0*%
%TF.SameCoordinates,Original*%
%TF.FileFunction,Soldermask,Bot*%
%TF.FilePolarity,Negative*%
%FSLAX46Y46*%
G04 Gerber Fmt 4.6, Leading zero omitted, Abs format (unit mm)*
G04 Created by KiCad (PCBNEW 8.0.8) date 2025-01-29 09:19:24*
%MOMM*%
%LPD*%
G01*
G04 APERTURE LIST*
G04 Aperture macros list*
%AMRoundRect*
0 Rectangle with rounded corners*
0 $1 Rounding radius*
0 $2 $3 $4 $5 $6 $7 $8 $9 X,Y pos of 4 corners*
0 Add a 4 corners polygon primitive as box body*
4,1,4,$2,$3,$4,$5,$6,$7,$8,$9,$2,$3,0*
0 Add four circle primitives for the rounded corners*
1,1,$1+$1,$2,$3*
1,1,$1+$1,$4,$5*
1,1,$1+$1,$6,$7*
1,1,$1+$1,$8,$9*
0 Add four rect primitives between the rounded corners*
20,1,$1+$1,$2,$3,$4,$5,0*
20,1,$1+$1,$4,$5,$6,$7,0*
20,1,$1+$1,$6,$7,$8,$9,0*
20,1,$1+$1,$8,$9,$2,$3,0*%
G04 Aperture macros list end*
%ADD10RoundRect,0.250000X-0.725000X0.600000X-0.725000X-0.600000X0.725000X-0.600000X0.725000X0.600000X0*%
%ADD11O,1.950000X1.700000*%
%ADD12RoundRect,0.250000X-0.600000X-0.725000X0.600000X-0.725000X0.600000X0.725000X-0.600000X0.725000X0*%
%ADD13O,1.700000X1.950000*%
%ADD14R,1.700000X1.700000*%
%ADD15O,1.700000X1.700000*%
%ADD16RoundRect,0.250000X0.725000X-0.600000X0.725000X0.600000X-0.725000X0.600000X-0.725000X-0.600000X0*%
%ADD17C,1.600000*%
%ADD18RoundRect,0.250000X0.600000X0.725000X-0.600000X0.725000X-0.600000X-0.725000X0.600000X-0.725000X0*%
%ADD19RoundRect,0.102000X-1.050000X1.050000X-1.050000X-1.050000X1.050000X-1.050000X1.050000X1.050000X0*%
%ADD20C,2.304000*%
%ADD21O,1.600000X1.600000*%
%ADD22C,5.600000*%
%ADD23RoundRect,0.250000X-0.600000X-0.750000X0.600000X-0.750000X0.600000X0.750000X-0.600000X0.750000X0*%
%ADD24O,1.700000X2.000000*%
%ADD25R,2.000000X1.200000*%
%ADD26O,2.000000X1.200000*%
G04 APERTURE END LIST*
D10*
%TO.C,Button3*%
X86975000Y-76218440D03*
D11*
X86975000Y-78718440D03*
X86975000Y-81218440D03*
%TD*%
D12*
%TO.C,Power_Button1*%
X109220000Y-133120000D03*
D13*
X111720000Y-133120000D03*
X114220000Y-133120000D03*
%TD*%
D14*
%TO.C,J2*%
X137600000Y-65616880D03*
D15*
X137600000Y-68156880D03*
X137600000Y-70696880D03*
X137600000Y-73236880D03*
X137600000Y-75776880D03*
X137600000Y-78316880D03*
X137600000Y-80856880D03*
X137600000Y-83396880D03*
X137600000Y-85936880D03*
X137600000Y-88476880D03*
X137600000Y-91016880D03*
X137600000Y-93556880D03*
X137600000Y-96096880D03*
X137600000Y-98636880D03*
X137600000Y-101176880D03*
X137600000Y-103716880D03*
X137600000Y-106256880D03*
X137600000Y-108796880D03*
X137600000Y-111336880D03*
%TD*%
D16*
%TO.C,Light_Sensor1*%
X168500000Y-109000000D03*
D11*
X168500000Y-106500000D03*
X168500000Y-104000000D03*
%TD*%
D14*
%TO.C,J1*%
X105680000Y-65695000D03*
D15*
X105680000Y-68235000D03*
X105680000Y-70775000D03*
X105680000Y-73315000D03*
X105680000Y-75855000D03*
X105680000Y-78395000D03*
X105680000Y-80935000D03*
X105680000Y-83475000D03*
X105680000Y-86015000D03*
X105680000Y-88555000D03*
X105680000Y-91095000D03*
X105680000Y-93635000D03*
X105680000Y-96175000D03*
X105680000Y-98715000D03*
X105680000Y-101255000D03*
X105680000Y-103795000D03*
X105680000Y-106335000D03*
X105680000Y-108875000D03*
X105680000Y-111415000D03*
%TD*%
D17*
%TO.C,C2*%
X107670000Y-122420000D03*
X111170000Y-122420000D03*
%TD*%
D10*
%TO.C,LED1*%
X86975000Y-111920000D03*
D11*
X86975000Y-114420000D03*
X86975000Y-116920000D03*
%TD*%
D12*
%TO.C,DS18B20*%
X129620000Y-133120000D03*
D13*
X132120000Y-133120000D03*
X134620000Y-133120000D03*
%TD*%
D10*
%TO.C,Button4*%
X86975000Y-65218440D03*
D11*
X86975000Y-67718440D03*
X86975000Y-70218440D03*
%TD*%
D18*
%TO.C,HR-SC501_PIR1*%
X159920000Y-133820000D03*
D13*
X157420000Y-133820000D03*
X154920000Y-133820000D03*
%TD*%
D19*
%TO.C,Power1*%
X86970000Y-123582500D03*
D20*
X86970000Y-128582500D03*
%TD*%
D18*
%TO.C,AM2320*%
X162420000Y-118920000D03*
D13*
X159920000Y-118920000D03*
X157420000Y-118920000D03*
X154920000Y-118920000D03*
%TD*%
D17*
%TO.C,R7*%
X152700000Y-112620000D03*
D21*
X160320000Y-112620000D03*
%TD*%
D14*
%TO.C,DS3231*%
X160500000Y-104720000D03*
D15*
X157960000Y-104720000D03*
X155420000Y-104720000D03*
X152880000Y-104720000D03*
X150340000Y-104720000D03*
X147800000Y-104720000D03*
%TD*%
D10*
%TO.C,Button2*%
X86975000Y-88218440D03*
D11*
X86975000Y-90718440D03*
X86975000Y-93218440D03*
%TD*%
D22*
%TO.C,H4*%
X80500000Y-135000000D03*
%TD*%
D17*
%TO.C,R2*%
X93920000Y-105218440D03*
D21*
X93920000Y-97598440D03*
%TD*%
D17*
%TO.C,R1*%
X93920000Y-115720000D03*
D21*
X93920000Y-108100000D03*
%TD*%
D22*
%TO.C,H1*%
X80500000Y-60000000D03*
%TD*%
D17*
%TO.C,R3*%
X93920000Y-93140000D03*
D21*
X93920000Y-85520000D03*
%TD*%
D18*
%TO.C,LCD1*%
X162520000Y-126220000D03*
D13*
X160020000Y-126220000D03*
X157520000Y-126220000D03*
X155020000Y-126220000D03*
%TD*%
D17*
%TO.C,R4*%
X93920000Y-81220000D03*
D21*
X93920000Y-73600000D03*
%TD*%
D17*
%TO.C,R8*%
X133620000Y-126020000D03*
D21*
X126000000Y-126020000D03*
%TD*%
D22*
%TO.C,H3*%
X170500000Y-130000000D03*
%TD*%
D10*
%TO.C,Button1*%
X86975000Y-100218440D03*
D11*
X86975000Y-102718440D03*
X86975000Y-105218440D03*
%TD*%
D17*
%TO.C,C1*%
X96320000Y-125620000D03*
X101320000Y-125620000D03*
%TD*%
%TO.C,R6*%
X146120000Y-126120000D03*
D21*
X138500000Y-126120000D03*
%TD*%
D23*
%TO.C,BZ1*%
X143520000Y-133220000D03*
D24*
X146020000Y-133220000D03*
%TD*%
D17*
%TO.C,R5*%
X93920000Y-70220000D03*
D21*
X93920000Y-62600000D03*
%TD*%
D22*
%TO.C,H2*%
X170500000Y-60000000D03*
%TD*%
D25*
%TO.C,U1*%
X108925000Y-65695000D03*
D26*
X108925000Y-68235000D03*
X108925000Y-70775000D03*
X108925000Y-73315000D03*
X108925000Y-75855000D03*
X108925000Y-78395000D03*
X108925000Y-80935000D03*
X108925000Y-83475000D03*
X108925000Y-86015000D03*
X108925000Y-88555000D03*
X108925000Y-91095000D03*
X108925000Y-93635000D03*
X108925000Y-96175000D03*
X108925000Y-98715000D03*
X108925000Y-101255000D03*
X108925000Y-103795000D03*
X108925000Y-106335000D03*
X108925000Y-108875000D03*
X108925000Y-111415000D03*
X134321320Y-111412280D03*
X134321320Y-108872280D03*
X134325000Y-106335000D03*
X134325000Y-103795000D03*
X134325000Y-101255000D03*
X134325000Y-98715000D03*
X134325000Y-96175000D03*
X134325000Y-93635000D03*
X134325000Y-91095000D03*
X134325000Y-88555000D03*
X134325000Y-86015000D03*
X134325000Y-83475000D03*
X134325000Y-80935000D03*
X134325000Y-78395000D03*
X134325000Y-75855000D03*
X134325000Y-73315000D03*
X134325000Y-70775000D03*
X134325000Y-68235000D03*
X134325000Y-65695000D03*
%TD*%
M02*
