%TF.GenerationSoftware,KiCad,Pcbnew,8.0.8*%
%TF.CreationDate,2025-01-29T09:19:23+01:00*%
%TF.ProjectId,PoolClock,506f6f6c-436c-46f6-936b-2e6b69636164,1.0*%
%TF.SameCoordinates,Original*%
%TF.FileFunction,Copper,L1,Top*%
%TF.FilePolarity,Positive*%
%FSLAX46Y46*%
G04 Gerber Fmt 4.6, Leading zero omitted, Abs format (unit mm)*
G04 Created by KiCad (PCBNEW 8.0.8) date 2025-01-29 09:19:23*
%MOMM*%
%LPD*%
G01*
G04 APERTURE LIST*
G04 Aperture macros list*
%AMRoundRect*
0 Rectangle with rounded corners*
0 $1 Rounding radius*
0 $2 $3 $4 $5 $6 $7 $8 $9 X,Y pos of 4 corners*
0 Add a 4 corners polygon primitive as box body*
4,1,4,$2,$3,$4,$5,$6,$7,$8,$9,$2,$3,0*
0 Add four circle primitives for the rounded corners*
1,1,$1+$1,$2,$3*
1,1,$1+$1,$4,$5*
1,1,$1+$1,$6,$7*
1,1,$1+$1,$8,$9*
0 Add four rect primitives between the rounded corners*
20,1,$1+$1,$2,$3,$4,$5,0*
20,1,$1+$1,$4,$5,$6,$7,0*
20,1,$1+$1,$6,$7,$8,$9,0*
20,1,$1+$1,$8,$9,$2,$3,0*%
G04 Aperture macros list end*
%TA.AperFunction,ComponentPad*%
%ADD10RoundRect,0.250000X-0.725000X0.600000X-0.725000X-0.600000X0.725000X-0.600000X0.725000X0.600000X0*%
%TD*%
%TA.AperFunction,ComponentPad*%
%ADD11O,1.950000X1.700000*%
%TD*%
%TA.AperFunction,ComponentPad*%
%ADD12RoundRect,0.250000X-0.600000X-0.725000X0.600000X-0.725000X0.600000X0.725000X-0.600000X0.725000X0*%
%TD*%
%TA.AperFunction,ComponentPad*%
%ADD13O,1.700000X1.950000*%
%TD*%
%TA.AperFunction,ComponentPad*%
%ADD14R,1.700000X1.700000*%
%TD*%
%TA.AperFunction,ComponentPad*%
%ADD15O,1.700000X1.700000*%
%TD*%
%TA.AperFunction,ComponentPad*%
%ADD16RoundRect,0.250000X0.725000X-0.600000X0.725000X0.600000X-0.725000X0.600000X-0.725000X-0.600000X0*%
%TD*%
%TA.AperFunction,ComponentPad*%
%ADD17C,1.600000*%
%TD*%
%TA.AperFunction,ComponentPad*%
%ADD18RoundRect,0.250000X0.600000X0.725000X-0.600000X0.725000X-0.600000X-0.725000X0.600000X-0.725000X0*%
%TD*%
%TA.AperFunction,ComponentPad*%
%ADD19R,2.100000X2.100000*%
%TD*%
%TA.AperFunction,ComponentPad*%
%ADD20C,2.100000*%
%TD*%
%TA.AperFunction,ComponentPad*%
%ADD21O,1.600000X1.600000*%
%TD*%
%TA.AperFunction,ComponentPad*%
%ADD22C,5.600000*%
%TD*%
%TA.AperFunction,ComponentPad*%
%ADD23RoundRect,0.250000X-0.600000X-0.750000X0.600000X-0.750000X0.600000X0.750000X-0.600000X0.750000X0*%
%TD*%
%TA.AperFunction,ComponentPad*%
%ADD24O,1.700000X2.000000*%
%TD*%
%TA.AperFunction,ComponentPad*%
%ADD25R,2.000000X1.200000*%
%TD*%
%TA.AperFunction,ComponentPad*%
%ADD26O,2.000000X1.200000*%
%TD*%
%TA.AperFunction,Conductor*%
%ADD27C,1.000000*%
%TD*%
%TA.AperFunction,Conductor*%
%ADD28C,0.400000*%
%TD*%
%TA.AperFunction,Conductor*%
%ADD29C,0.250000*%
%TD*%
G04 APERTURE END LIST*
D10*
%TO.P,Button3,1,Pin_1*%
%TO.N,/3V3*%
X86975000Y-76218440D03*
D11*
%TO.P,Button3,2,Pin_2*%
%TO.N,GND*%
X86975000Y-78718440D03*
%TO.P,Button3,3,Pin_3*%
%TO.N,/IO27*%
X86975000Y-81218440D03*
%TD*%
D12*
%TO.P,Power_Button1,1,Pin_1*%
%TO.N,/VIN*%
X109220000Y-133120000D03*
D13*
%TO.P,Power_Button1,2,Pin_2*%
%TO.N,GND*%
X111720000Y-133120000D03*
%TO.P,Power_Button1,3,Pin_3*%
%TO.N,/+5V*%
X114220000Y-133120000D03*
%TD*%
D14*
%TO.P,J2,1,Pin_1*%
%TO.N,GND*%
X137600000Y-65616880D03*
D15*
%TO.P,J2,2,Pin_2*%
%TO.N,/IO23*%
X137600000Y-68156880D03*
%TO.P,J2,3,Pin_3*%
%TO.N,/SCL*%
X137600000Y-70696880D03*
%TO.P,J2,4,Pin_4*%
%TO.N,/IO01*%
X137600000Y-73236880D03*
%TO.P,J2,5,Pin_5*%
%TO.N,/IO03*%
X137600000Y-75776880D03*
%TO.P,J2,6,Pin_6*%
%TO.N,/SDA*%
X137600000Y-78316880D03*
%TO.P,J2,7,Pin_7*%
%TO.N,GND*%
X137600000Y-80856880D03*
%TO.P,J2,8,Pin_8*%
%TO.N,/IO19*%
X137600000Y-83396880D03*
%TO.P,J2,9,Pin_9*%
%TO.N,/IO18*%
X137600000Y-85936880D03*
%TO.P,J2,10,Pin_10*%
%TO.N,/IO05*%
X137600000Y-88476880D03*
%TO.P,J2,11,Pin_11*%
%TO.N,/IO17*%
X137600000Y-91016880D03*
%TO.P,J2,12,Pin_12*%
%TO.N,/IO16*%
X137600000Y-93556880D03*
%TO.P,J2,13,Pin_13*%
%TO.N,/IO04*%
X137600000Y-96096880D03*
%TO.P,J2,14,Pin_14*%
%TO.N,/IO00*%
X137600000Y-98636880D03*
%TO.P,J2,15,Pin_15*%
%TO.N,/IO02*%
X137600000Y-101176880D03*
%TO.P,J2,16,Pin_16*%
%TO.N,/IO15*%
X137600000Y-103716880D03*
%TO.P,J2,17,Pin_17*%
%TO.N,/IO08*%
X137600000Y-106256880D03*
%TO.P,J2,18,Pin_18*%
%TO.N,/IO07*%
X137600000Y-108796880D03*
%TO.P,J2,19,Pin_19*%
%TO.N,/IO06*%
X137600000Y-111336880D03*
%TD*%
D16*
%TO.P,Light_Sensor1,1,Pin_1*%
%TO.N,/+5V*%
X168500000Y-109000000D03*
D11*
%TO.P,Light_Sensor1,2,Pin_2*%
%TO.N,GND*%
X168500000Y-106500000D03*
%TO.P,Light_Sensor1,3,Pin_3*%
%TO.N,/IO19*%
X168500000Y-104000000D03*
%TD*%
D14*
%TO.P,J1,1,Pin_1*%
%TO.N,/3V3*%
X105680000Y-65695000D03*
D15*
%TO.P,J1,2,Pin_2*%
%TO.N,/EN*%
X105680000Y-68235000D03*
%TO.P,J1,3,Pin_3*%
%TO.N,/IO36*%
X105680000Y-70775000D03*
%TO.P,J1,4,Pin_4*%
%TO.N,/IO39*%
X105680000Y-73315000D03*
%TO.P,J1,5,Pin_5*%
%TO.N,/IO34*%
X105680000Y-75855000D03*
%TO.P,J1,6,Pin_6*%
%TO.N,/IO35*%
X105680000Y-78395000D03*
%TO.P,J1,7,Pin_7*%
%TO.N,/IO32*%
X105680000Y-80935000D03*
%TO.P,J1,8,Pin_8*%
%TO.N,/IO33*%
X105680000Y-83475000D03*
%TO.P,J1,9,Pin_9*%
%TO.N,/IO25*%
X105680000Y-86015000D03*
%TO.P,J1,10,Pin_10*%
%TO.N,/IO26*%
X105680000Y-88555000D03*
%TO.P,J1,11,Pin_11*%
%TO.N,/IO27*%
X105680000Y-91095000D03*
%TO.P,J1,12,Pin_12*%
%TO.N,/IO14*%
X105680000Y-93635000D03*
%TO.P,J1,13,Pin_13*%
%TO.N,/IO12*%
X105680000Y-96175000D03*
%TO.P,J1,14,Pin_14*%
%TO.N,GND*%
X105680000Y-98715000D03*
%TO.P,J1,15,Pin_15*%
%TO.N,/IO13*%
X105680000Y-101255000D03*
%TO.P,J1,16,Pin_16*%
%TO.N,/IO09*%
X105680000Y-103795000D03*
%TO.P,J1,17,Pin_17*%
%TO.N,/IO10*%
X105680000Y-106335000D03*
%TO.P,J1,18,Pin_18*%
%TO.N,/IO11*%
X105680000Y-108875000D03*
%TO.P,J1,19,Pin_19*%
%TO.N,/+5V*%
X105680000Y-111415000D03*
%TD*%
D17*
%TO.P,C2,1*%
%TO.N,/+5V*%
X107670000Y-122420000D03*
%TO.P,C2,2*%
%TO.N,GND*%
X111170000Y-122420000D03*
%TD*%
D10*
%TO.P,LED1,1,Pin_1*%
%TO.N,/DIN*%
X86975000Y-111920000D03*
D11*
%TO.P,LED1,2,Pin_2*%
%TO.N,/+5V*%
X86975000Y-114420000D03*
%TO.P,LED1,3,Pin_3*%
%TO.N,GND*%
X86975000Y-116920000D03*
%TD*%
D12*
%TO.P,DS18B20,1,Pin_1*%
%TO.N,GND*%
X129620000Y-133120000D03*
D13*
%TO.P,DS18B20,2,Pin_2*%
%TO.N,/IO04*%
X132120000Y-133120000D03*
%TO.P,DS18B20,3,Pin_3*%
%TO.N,/+5V*%
X134620000Y-133120000D03*
%TD*%
D10*
%TO.P,Button4,1,Pin_1*%
%TO.N,/3V3*%
X86975000Y-65218440D03*
D11*
%TO.P,Button4,2,Pin_2*%
%TO.N,GND*%
X86975000Y-67718440D03*
%TO.P,Button4,3,Pin_3*%
%TO.N,/IO26*%
X86975000Y-70218440D03*
%TD*%
D18*
%TO.P,HR-SC501_PIR1,1,Pin_1*%
%TO.N,/+5V*%
X159920000Y-133820000D03*
D13*
%TO.P,HR-SC501_PIR1,2,Pin_2*%
%TO.N,/IO05*%
X157420000Y-133820000D03*
%TO.P,HR-SC501_PIR1,3,Pin_3*%
%TO.N,GND*%
X154920000Y-133820000D03*
%TD*%
D19*
%TO.P,Power1,1,Pin_1*%
%TO.N,/VIN*%
X86970000Y-123582500D03*
D20*
%TO.P,Power1,2,Pin_2*%
%TO.N,GND*%
X86970000Y-128582500D03*
%TD*%
D18*
%TO.P,AM2320,1,Pin_1*%
%TO.N,GND*%
X162420000Y-118920000D03*
D13*
%TO.P,AM2320,2,Pin_2*%
%TO.N,/+5V*%
X159920000Y-118920000D03*
%TO.P,AM2320,3,Pin_3*%
%TO.N,/SDA*%
X157420000Y-118920000D03*
%TO.P,AM2320,4,Pin_4*%
%TO.N,/SCL*%
X154920000Y-118920000D03*
%TD*%
D17*
%TO.P,R7,1*%
%TO.N,/SCL*%
X152700000Y-112620000D03*
D21*
%TO.P,R7,2*%
%TO.N,/+5V*%
X160320000Y-112620000D03*
%TD*%
D14*
%TO.P,DS3231,1,Pin_1*%
%TO.N,GND*%
X160500000Y-104720000D03*
D15*
%TO.P,DS3231,2,Pin_2*%
%TO.N,/+5V*%
X157960000Y-104720000D03*
%TO.P,DS3231,3,Pin_3*%
%TO.N,/SDA*%
X155420000Y-104720000D03*
%TO.P,DS3231,4,Pin_4*%
%TO.N,/SCL*%
X152880000Y-104720000D03*
%TO.P,DS3231,5,Pin_5*%
%TO.N,/SQW*%
X150340000Y-104720000D03*
%TO.P,DS3231,6,Pin_6*%
%TO.N,/32K*%
X147800000Y-104720000D03*
%TD*%
D10*
%TO.P,Button2,1,Pin_1*%
%TO.N,/3V3*%
X86975000Y-88218440D03*
D11*
%TO.P,Button2,2,Pin_2*%
%TO.N,GND*%
X86975000Y-90718440D03*
%TO.P,Button2,3,Pin_3*%
%TO.N,/IO14*%
X86975000Y-93218440D03*
%TD*%
D22*
%TO.P,H4,1,1*%
%TO.N,GND*%
X80500000Y-135000000D03*
%TD*%
D17*
%TO.P,R2,1*%
%TO.N,/IO12*%
X93920000Y-105218440D03*
D21*
%TO.P,R2,2*%
%TO.N,GND*%
X93920000Y-97598440D03*
%TD*%
D17*
%TO.P,R1,1*%
%TO.N,/DIN*%
X93920000Y-115720000D03*
D21*
%TO.P,R1,2*%
%TO.N,/IO18*%
X93920000Y-108100000D03*
%TD*%
D22*
%TO.P,H1,1,1*%
%TO.N,GND*%
X80500000Y-60000000D03*
%TD*%
D17*
%TO.P,R3,1*%
%TO.N,/IO14*%
X93920000Y-93140000D03*
D21*
%TO.P,R3,2*%
%TO.N,GND*%
X93920000Y-85520000D03*
%TD*%
D18*
%TO.P,LCD1,1,Pin_1*%
%TO.N,GND*%
X162520000Y-126220000D03*
D13*
%TO.P,LCD1,2,Pin_2*%
%TO.N,/+5V*%
X160020000Y-126220000D03*
%TO.P,LCD1,3,Pin_3*%
%TO.N,/SDA*%
X157520000Y-126220000D03*
%TO.P,LCD1,4,Pin_4*%
%TO.N,/SCL*%
X155020000Y-126220000D03*
%TD*%
D17*
%TO.P,R4,1*%
%TO.N,/IO27*%
X93920000Y-81220000D03*
D21*
%TO.P,R4,2*%
%TO.N,GND*%
X93920000Y-73600000D03*
%TD*%
D17*
%TO.P,R8,1*%
%TO.N,/+5V*%
X133620000Y-126020000D03*
D21*
%TO.P,R8,2*%
%TO.N,/IO04*%
X126000000Y-126020000D03*
%TD*%
D22*
%TO.P,H3,1,1*%
%TO.N,GND*%
X170500000Y-130000000D03*
%TD*%
D10*
%TO.P,Button1,1,Pin_1*%
%TO.N,/3V3*%
X86975000Y-100218440D03*
D11*
%TO.P,Button1,2,Pin_2*%
%TO.N,GND*%
X86975000Y-102718440D03*
%TO.P,Button1,3,Pin_3*%
%TO.N,/IO12*%
X86975000Y-105218440D03*
%TD*%
D17*
%TO.P,C1,1*%
%TO.N,/+5V*%
X96320000Y-125620000D03*
%TO.P,C1,2*%
%TO.N,GND*%
X101320000Y-125620000D03*
%TD*%
%TO.P,R6,1*%
%TO.N,/SDA*%
X146120000Y-126120000D03*
D21*
%TO.P,R6,2*%
%TO.N,/+5V*%
X138500000Y-126120000D03*
%TD*%
D23*
%TO.P,BZ1,1,+*%
%TO.N,/IO17*%
X143520000Y-133220000D03*
D24*
%TO.P,BZ1,2,-*%
%TO.N,GND*%
X146020000Y-133220000D03*
%TD*%
D17*
%TO.P,R5,1*%
%TO.N,/IO26*%
X93920000Y-70220000D03*
D21*
%TO.P,R5,2*%
%TO.N,GND*%
X93920000Y-62600000D03*
%TD*%
D22*
%TO.P,H2,1,1*%
%TO.N,GND*%
X170500000Y-60000000D03*
%TD*%
D25*
%TO.P,U1,1,3V3*%
%TO.N,/3V3*%
X108925000Y-65695000D03*
D26*
%TO.P,U1,2,CHIP_PU*%
%TO.N,/EN*%
X108925000Y-68235000D03*
%TO.P,U1,3,SENSOR_VP/GPIO36/ADC1_CH0*%
%TO.N,/IO36*%
X108925000Y-70775000D03*
%TO.P,U1,4,SENSOR_VN/GPIO39/ADC1_CH3*%
%TO.N,/IO39*%
X108925000Y-73315000D03*
%TO.P,U1,5,VDET_1/GPIO34/ADC1_CH6*%
%TO.N,/IO34*%
X108925000Y-75855000D03*
%TO.P,U1,6,VDET_2/GPIO35/ADC1_CH7*%
%TO.N,/IO35*%
X108925000Y-78395000D03*
%TO.P,U1,7,32K_XP/GPIO32/ADC1_CH4*%
%TO.N,/IO32*%
X108925000Y-80935000D03*
%TO.P,U1,8,32K_XN/GPIO33/ADC1_CH5*%
%TO.N,/IO33*%
X108925000Y-83475000D03*
%TO.P,U1,9,DAC_1/ADC2_CH8/GPIO25*%
%TO.N,/IO25*%
X108925000Y-86015000D03*
%TO.P,U1,10,DAC_2/ADC2_CH9/GPIO26*%
%TO.N,/IO26*%
X108925000Y-88555000D03*
%TO.P,U1,11,ADC2_CH7/GPIO27*%
%TO.N,/IO27*%
X108925000Y-91095000D03*
%TO.P,U1,12,MTMS/GPIO14/ADC2_CH6*%
%TO.N,/IO14*%
X108925000Y-93635000D03*
%TO.P,U1,13,MTDI/GPIO12/ADC2_CH5*%
%TO.N,/IO12*%
X108925000Y-96175000D03*
%TO.P,U1,14,GND*%
%TO.N,GND*%
X108925000Y-98715000D03*
%TO.P,U1,15,MTCK/GPIO13/ADC2_CH4*%
%TO.N,/IO13*%
X108925000Y-101255000D03*
%TO.P,U1,16,SD_DATA2/GPIO9*%
%TO.N,/IO09*%
X108925000Y-103795000D03*
%TO.P,U1,17,SD_DATA3/GPIO10*%
%TO.N,/IO10*%
X108925000Y-106335000D03*
%TO.P,U1,18,CMD*%
%TO.N,/IO11*%
X108925000Y-108875000D03*
%TO.P,U1,19,5V*%
%TO.N,/+5V*%
X108925000Y-111415000D03*
%TO.P,U1,20,SD_CLK/GPIO6*%
%TO.N,/IO06*%
X134321320Y-111412280D03*
%TO.P,U1,21,SD_DATA0/GPIO7*%
%TO.N,/IO07*%
X134321320Y-108872280D03*
%TO.P,U1,22,SD_DATA1/GPIO8*%
%TO.N,/IO08*%
X134325000Y-106335000D03*
%TO.P,U1,23,MTDO/GPIO15/ADC2_CH3*%
%TO.N,/IO15*%
X134325000Y-103795000D03*
%TO.P,U1,24,ADC2_CH2/GPIO2*%
%TO.N,/IO02*%
X134325000Y-101255000D03*
%TO.P,U1,25,GPIO0/BOOT/ADC2_CH1*%
%TO.N,/IO00*%
X134325000Y-98715000D03*
%TO.P,U1,26,ADC2_CH0/GPIO4*%
%TO.N,/IO04*%
X134325000Y-96175000D03*
%TO.P,U1,27,GPIO16*%
%TO.N,/IO16*%
X134325000Y-93635000D03*
%TO.P,U1,28,GPIO17*%
%TO.N,/IO17*%
X134325000Y-91095000D03*
%TO.P,U1,29,GPIO5*%
%TO.N,/IO05*%
X134325000Y-88555000D03*
%TO.P,U1,30,GPIO18*%
%TO.N,/IO18*%
X134325000Y-86015000D03*
%TO.P,U1,31,GPIO19*%
%TO.N,/IO19*%
X134325000Y-83475000D03*
%TO.P,U1,32,GND*%
%TO.N,GND*%
X134325000Y-80935000D03*
%TO.P,U1,33,GPIO21*%
%TO.N,/SDA*%
X134325000Y-78395000D03*
%TO.P,U1,34,U0RXD/GPIO3*%
%TO.N,/IO03*%
X134325000Y-75855000D03*
%TO.P,U1,35,U0TXD/GPIO1*%
%TO.N,/IO01*%
X134325000Y-73315000D03*
%TO.P,U1,36,GPIO22*%
%TO.N,/SCL*%
X134325000Y-70775000D03*
%TO.P,U1,37,GPIO23*%
%TO.N,/IO23*%
X134325000Y-68235000D03*
%TO.P,U1,38,GND*%
%TO.N,GND*%
X134325000Y-65695000D03*
%TD*%
D27*
%TO.N,/SCL*%
X134325000Y-70775000D02*
X134403120Y-70696880D01*
X152700000Y-104900000D02*
X152880000Y-104720000D01*
X152880000Y-85976880D02*
X137600000Y-70696880D01*
X154920000Y-114840000D02*
X152700000Y-112620000D01*
X134403120Y-70696880D02*
X137600000Y-70696880D01*
X155020000Y-119020000D02*
X154920000Y-118920000D01*
X152700000Y-112620000D02*
X152700000Y-104900000D01*
X155020000Y-126220000D02*
X155020000Y-119020000D01*
X154920000Y-118920000D02*
X154920000Y-114840000D01*
X152880000Y-104720000D02*
X152880000Y-85976880D01*
D28*
%TO.N,GND*%
X134403120Y-80856880D02*
X134325000Y-80935000D01*
X134403120Y-65616880D02*
X134325000Y-65695000D01*
D27*
X168500000Y-106500000D02*
X162280000Y-106500000D01*
X162280000Y-106500000D02*
X160500000Y-104720000D01*
%TO.N,/SDA*%
X134357500Y-78446880D02*
X137470000Y-78446880D01*
X157520000Y-126220000D02*
X157520000Y-119020000D01*
X144500000Y-124500000D02*
X144500000Y-85216880D01*
X149000000Y-129000000D02*
X144500000Y-124500000D01*
X157420000Y-118920000D02*
X157420000Y-111920000D01*
X154740000Y-129000000D02*
X149000000Y-129000000D01*
X157520000Y-126220000D02*
X154740000Y-129000000D01*
X157420000Y-111920000D02*
X155420000Y-109920000D01*
X137470000Y-78446880D02*
X137600000Y-78316880D01*
X155420000Y-109920000D02*
X155420000Y-104720000D01*
X157520000Y-119020000D02*
X157420000Y-118920000D01*
X144500000Y-85216880D02*
X137600000Y-78316880D01*
D29*
%TO.N,/DIN*%
X90120000Y-111920000D02*
X93920000Y-115720000D01*
X86975000Y-111920000D02*
X90120000Y-111920000D01*
%TO.N,/IO12*%
X102963440Y-96175000D02*
X105680000Y-96175000D01*
X93920000Y-105218440D02*
X102963440Y-96175000D01*
D27*
X105680000Y-96175000D02*
X108925000Y-96175000D01*
D29*
X86975000Y-105218440D02*
X93920000Y-105218440D01*
D27*
%TO.N,/IO14*%
X108863120Y-93696880D02*
X108925000Y-93635000D01*
D29*
X93841560Y-93218440D02*
X93920000Y-93140000D01*
D27*
X105680000Y-93635000D02*
X105741880Y-93696880D01*
D29*
X105185000Y-93140000D02*
X105680000Y-93635000D01*
X93920000Y-93140000D02*
X105185000Y-93140000D01*
X86975000Y-93218440D02*
X93841560Y-93218440D01*
D27*
X105741880Y-93696880D02*
X108863120Y-93696880D01*
D29*
%TO.N,/IO27*%
X95805000Y-81220000D02*
X105680000Y-91095000D01*
X93920000Y-81220000D02*
X95805000Y-81220000D01*
D27*
X105680000Y-91095000D02*
X108925000Y-91095000D01*
D29*
X86975000Y-81218440D02*
X93918440Y-81218440D01*
X93918440Y-81218440D02*
X93920000Y-81220000D01*
D27*
%TO.N,/IO26*%
X105680000Y-88555000D02*
X105738120Y-88496880D01*
D29*
X100620000Y-83495000D02*
X105680000Y-88555000D01*
X86975000Y-70218440D02*
X93918440Y-70218440D01*
X93920000Y-70220000D02*
X100620000Y-76920000D01*
D27*
X105738120Y-88496880D02*
X109052500Y-88496880D01*
D29*
X93170000Y-70218440D02*
X93920000Y-70968440D01*
X100620000Y-76920000D02*
X100620000Y-83495000D01*
X93918440Y-70218440D02*
X93920000Y-70220000D01*
D27*
%TO.N,/IO17*%
X134325000Y-91095000D02*
X134326880Y-91096880D01*
D29*
X140500000Y-93916880D02*
X137600000Y-91016880D01*
X140500000Y-130200000D02*
X140500000Y-93916880D01*
D27*
X134326880Y-91096880D02*
X137520000Y-91096880D01*
X137520000Y-91096880D02*
X137600000Y-91016880D01*
D29*
X143520000Y-133220000D02*
X140500000Y-130200000D01*
%TO.N,/IO04*%
X132120000Y-132620000D02*
X126000000Y-126500000D01*
D27*
X134507500Y-96096880D02*
X137452500Y-96096880D01*
D29*
X126000000Y-126500000D02*
X126000000Y-104500000D01*
X126000000Y-104500000D02*
X134325000Y-96175000D01*
X132120000Y-133120000D02*
X132120000Y-132620000D01*
D27*
X137452500Y-96096880D02*
X137602500Y-95946880D01*
D29*
%TO.N,/IO05*%
X153600000Y-130000000D02*
X142500000Y-130000000D01*
D27*
X134407500Y-88496880D02*
X137552500Y-88496880D01*
X137552500Y-88496880D02*
X137602500Y-88446880D01*
D29*
X142500000Y-130000000D02*
X142500000Y-93376880D01*
D27*
X134357500Y-88446880D02*
X134407500Y-88496880D01*
D29*
X157420000Y-133820000D02*
X153600000Y-130000000D01*
X142500000Y-93376880D02*
X137600000Y-88476880D01*
D27*
%TO.N,/IO35*%
X105680000Y-78395000D02*
X108925000Y-78395000D01*
%TO.N,/EN*%
X105680000Y-68235000D02*
X108925000Y-68235000D01*
%TO.N,/IO32*%
X105680000Y-80935000D02*
X108925000Y-80935000D01*
%TO.N,/IO25*%
X105680000Y-86015000D02*
X108925000Y-86015000D01*
%TO.N,/IO39*%
X105680000Y-73315000D02*
X108925000Y-73315000D01*
%TO.N,/IO33*%
X105680000Y-83475000D02*
X108925000Y-83475000D01*
%TO.N,/IO36*%
X105680000Y-70775000D02*
X108925000Y-70775000D01*
%TO.N,/IO34*%
X105680000Y-75855000D02*
X105738120Y-75796880D01*
X105738120Y-75796880D02*
X108866880Y-75796880D01*
X108866880Y-75796880D02*
X108925000Y-75855000D01*
%TO.N,/IO13*%
X105680000Y-101255000D02*
X108925000Y-101255000D01*
%TO.N,/IO09*%
X105680000Y-103795000D02*
X108925000Y-103795000D01*
%TO.N,/IO11*%
X105680000Y-108875000D02*
X108925000Y-108875000D01*
%TO.N,/IO10*%
X105680000Y-106335000D02*
X108925000Y-106335000D01*
D29*
%TO.N,/IO08*%
X134403120Y-106256880D02*
X134325000Y-106335000D01*
D27*
X137600000Y-106256880D02*
X134403120Y-106256880D01*
%TO.N,/IO06*%
X137600000Y-111336880D02*
X134396720Y-111336880D01*
D29*
X134396720Y-111336880D02*
X134321320Y-111412280D01*
D27*
%TO.N,/IO18*%
X134357500Y-85946880D02*
X137602500Y-85946880D01*
D29*
X93920000Y-108100000D02*
X99590000Y-102430000D01*
X99590000Y-102430000D02*
X117910000Y-102430000D01*
X117910000Y-102430000D02*
X134325000Y-86015000D01*
%TO.N,/IO00*%
X134403120Y-98636880D02*
X134325000Y-98715000D01*
D27*
X137600000Y-98636880D02*
X134403120Y-98636880D01*
%TO.N,/VIN*%
X97772651Y-133120000D02*
X97572651Y-133320000D01*
X97572651Y-133320000D02*
X96707500Y-133320000D01*
X96707500Y-133320000D02*
X86970000Y-123582500D01*
X109220000Y-133120000D02*
X97772651Y-133120000D01*
%TO.N,/IO03*%
X137600000Y-75776880D02*
X134403120Y-75776880D01*
%TO.N,/IO19*%
X134503120Y-83496880D02*
X134403120Y-83396880D01*
D29*
X131420000Y-71720000D02*
X131420000Y-80570000D01*
X131420000Y-80570000D02*
X134325000Y-83475000D01*
X134403120Y-83396880D02*
X134325000Y-83475000D01*
X168500000Y-104000000D02*
X168500000Y-98000000D01*
D27*
X137600000Y-83396880D02*
X137500000Y-83496880D01*
D29*
X140021880Y-69521880D02*
X133618120Y-69521880D01*
D27*
X137500000Y-83496880D02*
X134503120Y-83496880D01*
D29*
X133618120Y-69521880D02*
X131420000Y-71720000D01*
X168500000Y-98000000D02*
X140021880Y-69521880D01*
D27*
%TO.N,/IO07*%
X137600000Y-108796880D02*
X134396720Y-108796880D01*
D29*
X134396720Y-108796880D02*
X134321320Y-108872280D01*
%TO.N,/IO15*%
X134403120Y-103716880D02*
X134325000Y-103795000D01*
D27*
X137600000Y-103716880D02*
X134403120Y-103716880D01*
%TO.N,/IO23*%
X137600000Y-68156880D02*
X134403120Y-68156880D01*
%TO.N,/IO16*%
X137600000Y-93556880D02*
X134403120Y-93556880D01*
X134403120Y-93556880D02*
X134325000Y-93635000D01*
%TO.N,/IO01*%
X137600000Y-73236880D02*
X134403120Y-73236880D01*
D29*
%TO.N,/IO02*%
X134403120Y-101176880D02*
X134325000Y-101255000D01*
D27*
X137600000Y-101176880D02*
X134403120Y-101176880D01*
%TO.N,/+5V*%
X105680000Y-120430000D02*
X105680000Y-119720000D01*
X168500000Y-109000000D02*
X163940000Y-109000000D01*
X159920000Y-133820000D02*
X157020000Y-136720000D01*
X160320000Y-112620000D02*
X160520000Y-112620000D01*
X92275000Y-119720000D02*
X96220000Y-119720000D01*
X157800000Y-104880000D02*
X157960000Y-104720000D01*
X117620000Y-136520000D02*
X131220000Y-136520000D01*
X159920000Y-113020000D02*
X160320000Y-112620000D01*
X133620000Y-126020000D02*
X138400000Y-126020000D01*
X157020000Y-136720000D02*
X134870000Y-136720000D01*
X108906880Y-111396880D02*
X108925000Y-111415000D01*
X132945000Y-134795000D02*
X134620000Y-133120000D01*
X86975000Y-114420000D02*
X92275000Y-119720000D01*
X134870000Y-136720000D02*
X132945000Y-134795000D01*
X157960000Y-109128630D02*
X157960000Y-104720000D01*
X163940000Y-109000000D02*
X160320000Y-112620000D01*
X105680000Y-119720000D02*
X105680000Y-111415000D01*
X138400000Y-126020000D02*
X138500000Y-126120000D01*
X114220000Y-133120000D02*
X117620000Y-136520000D01*
X134620000Y-133120000D02*
X134620000Y-127020000D01*
X105698120Y-111396880D02*
X108906880Y-111396880D01*
X160320000Y-111488630D02*
X157960000Y-109128630D01*
X96320000Y-125620000D02*
X96320000Y-119820000D01*
X159920000Y-126320000D02*
X160020000Y-126220000D01*
X114220000Y-133120000D02*
X114220000Y-130400000D01*
X134620000Y-127020000D02*
X133620000Y-126020000D01*
X107670000Y-122420000D02*
X105680000Y-120430000D01*
X160320000Y-112620000D02*
X160320000Y-111488630D01*
X107670000Y-123850000D02*
X107670000Y-122420000D01*
X159920000Y-133820000D02*
X159920000Y-126320000D01*
X96220000Y-119720000D02*
X105680000Y-119720000D01*
X160020000Y-126220000D02*
X160020000Y-119020000D01*
X131220000Y-136520000D02*
X132945000Y-134795000D01*
X96320000Y-119820000D02*
X96220000Y-119720000D01*
X114220000Y-130400000D02*
X107670000Y-123850000D01*
X159920000Y-118920000D02*
X159920000Y-113020000D01*
X160020000Y-119020000D02*
X159920000Y-118920000D01*
X105680000Y-111415000D02*
X105698120Y-111396880D01*
%TO.N,/3V3*%
X86975000Y-76218440D02*
X85300000Y-74543440D01*
X86975000Y-88218440D02*
X85300000Y-86543440D01*
X85300000Y-74543440D02*
X85300000Y-66893440D01*
X108925000Y-65695000D02*
X105680000Y-65695000D01*
X105203440Y-65218440D02*
X105680000Y-65695000D01*
X85300000Y-89893440D02*
X86975000Y-88218440D01*
X85300000Y-86543440D02*
X85300000Y-77893440D01*
X86975000Y-100218440D02*
X85300000Y-98543440D01*
X86975000Y-65218440D02*
X105203440Y-65218440D01*
X85300000Y-98543440D02*
X85300000Y-89893440D01*
X85300000Y-66893440D02*
X86975000Y-65218440D01*
X85300000Y-77893440D02*
X86975000Y-76218440D01*
%TD*%
M02*
