M48
; DRILL file {KiCad 8.0.8} date 2025-01-29T09:19:28+0100
; FORMAT={-:-/ absolute / inch / decimal}
; #@! TF.CreationDate,2025-01-29T09:19:28+01:00
; #@! TF.GenerationSoftware,Kicad,Pcbnew,8.0.8
; #@! TF.FileFunction,Plated,1,2,PTH
FMAT,2
INCH
; #@! TA.AperFunction,Plated,PTH,ComponentDrill
T1C0.0315
; #@! TA.AperFunction,Plated,PTH,ComponentDrill
T2C0.0374
; #@! TA.AperFunction,Plated,PTH,ComponentDrill
T3C0.0394
; #@! TA.AperFunction,Plated,PTH,ComponentDrill
T4C0.0551
; #@! TA.AperFunction,Plated,PTH,ComponentDrill
T5C0.1260
%
G90
G05
T1
X3.6976Y-2.4646
X3.6976Y-2.7646
X3.6976Y-2.8976
X3.6976Y-3.1976
X3.6976Y-3.3669
X3.6976Y-3.6669
X3.6976Y-3.8425
X3.6976Y-4.1425
X3.6976Y-4.2559
X3.6976Y-4.5559
X3.7921Y-4.9457
X3.989Y-4.9457
X4.239Y-4.8197
X4.2884Y-2.5864
X4.2884Y-2.6864
X4.2884Y-2.7864
X4.2884Y-2.8864
X4.2884Y-2.9864
X4.2884Y-3.0864
X4.2884Y-3.1864
X4.2884Y-3.2864
X4.2884Y-3.3864
X4.2884Y-3.4864
X4.2884Y-3.5864
X4.2884Y-3.6864
X4.2884Y-3.7864
X4.2884Y-3.8864
X4.2884Y-3.9864
X4.2884Y-4.0864
X4.2884Y-4.1864
X4.2884Y-4.2864
X4.2884Y-4.3864
X4.3768Y-4.8197
X4.9606Y-4.9614
X5.2606Y-4.9614
X5.2882Y-4.2863
X5.2882Y-4.3863
X5.2884Y-2.5864
X5.2884Y-2.6864
X5.2884Y-2.7864
X5.2884Y-2.8864
X5.2884Y-2.9864
X5.2884Y-3.0864
X5.2884Y-3.1864
X5.2884Y-3.2864
X5.2884Y-3.3864
X5.2884Y-3.4864
X5.2884Y-3.5864
X5.2884Y-3.6864
X5.2884Y-3.7864
X5.2884Y-3.8864
X5.2884Y-3.9864
X5.2884Y-4.0864
X5.2884Y-4.1864
X5.4528Y-4.9654
X5.7528Y-4.9654
X6.0118Y-4.4339
X6.3118Y-4.4339
T2
X3.4242Y-2.5677
X3.4242Y-2.6661
X3.4242Y-2.7645
X3.4242Y-3.0007
X3.4242Y-3.0992
X3.4242Y-3.1976
X3.4242Y-3.4732
X3.4242Y-3.5716
X3.4242Y-3.67
X3.4242Y-3.9456
X3.4242Y-4.044
X3.4242Y-4.1425
X3.4242Y-4.4063
X3.4242Y-4.5047
X3.4242Y-4.6031
X4.3Y-5.2409
X4.3984Y-5.2409
X4.4969Y-5.2409
X5.1031Y-5.2409
X5.2016Y-5.2409
X5.3Y-5.2409
X6.0992Y-4.6819
X6.0992Y-5.2685
X6.1031Y-4.9693
X6.1976Y-4.6819
X6.1976Y-5.2685
X6.2016Y-4.9693
X6.2961Y-4.6819
X6.2961Y-5.2685
X6.3Y-4.9693
X6.3945Y-4.6819
X6.3984Y-4.9693
X6.6339Y-4.0945
X6.6339Y-4.1929
X6.6339Y-4.2913
T3
X4.1606Y-2.5864
X4.1606Y-2.6864
X4.1606Y-2.7864
X4.1606Y-2.8864
X4.1606Y-2.9864
X4.1606Y-3.0864
X4.1606Y-3.1864
X4.1606Y-3.2864
X4.1606Y-3.3864
X4.1606Y-3.4864
X4.1606Y-3.5864
X4.1606Y-3.6864
X4.1606Y-3.7864
X4.1606Y-3.8864
X4.1606Y-3.9864
X4.1606Y-4.0864
X4.1606Y-4.1864
X4.1606Y-4.2864
X4.1606Y-4.3864
X5.4173Y-2.5833
X5.4173Y-2.6833
X5.4173Y-2.7833
X5.4173Y-2.8833
X5.4173Y-2.9833
X5.4173Y-3.0833
X5.4173Y-3.1833
X5.4173Y-3.2833
X5.4173Y-3.3833
X5.4173Y-3.4833
X5.4173Y-3.5833
X5.4173Y-3.6833
X5.4173Y-3.7833
X5.4173Y-3.8833
X5.4173Y-3.9833
X5.4173Y-4.0833
X5.4173Y-4.1833
X5.4173Y-4.2833
X5.4173Y-4.3833
X5.6504Y-5.2449
X5.7488Y-5.2449
X5.8189Y-4.1228
X5.9189Y-4.1228
X6.0189Y-4.1228
X6.1189Y-4.1228
X6.2189Y-4.1228
X6.3189Y-4.1228
T4
X3.424Y-4.8655
X3.424Y-5.0623
T5
X3.1693Y-2.3622
X3.1693Y-5.315
X6.7126Y-2.3622
X6.7126Y-5.1181
M30
