%TF.GenerationSoftware,KiCad,Pcbnew,8.0.8*%
%TF.CreationDate,2025-01-29T09:19:30+01:00*%
%TF.ProjectId,PoolClock,506f6f6c-436c-46f6-936b-2e6b69636164,1.0*%
%TF.SameCoordinates,Original*%
%TF.FileFunction,Drillmap*%
%TF.FilePolarity,Positive*%
%FSLAX45Y45*%
G04 Gerber Fmt 4.5, Leading zero omitted, Abs format (unit mm)*
G04 Created by KiCad (PCBNEW 8.0.8) date 2025-01-29 09:19:30*
%MOMM*%
%LPD*%
G01*
G04 APERTURE LIST*
%ADD10C,0.050000*%
%ADD11C,0.200000*%
%ADD12C,0.100000*%
%ADD13C,0.140000*%
%ADD14C,0.320000*%
G04 APERTURE END LIST*
D10*
X7550000Y-5500000D02*
X17550000Y-5500000D01*
X17550000Y-14000000D01*
X7550000Y-14000000D01*
X7550000Y-5500000D01*
D11*
D12*
X9352000Y-6220000D02*
X9432000Y-6300000D01*
X9432000Y-6220000D02*
X9352000Y-6300000D01*
X9352000Y-6982000D02*
X9432000Y-7062000D01*
X9432000Y-6982000D02*
X9352000Y-7062000D01*
X9352000Y-7320000D02*
X9432000Y-7400000D01*
X9432000Y-7320000D02*
X9352000Y-7400000D01*
X9352000Y-8082000D02*
X9432000Y-8162000D01*
X9432000Y-8082000D02*
X9352000Y-8162000D01*
X9352000Y-8512000D02*
X9432000Y-8592000D01*
X9432000Y-8512000D02*
X9352000Y-8592000D01*
X9352000Y-9274000D02*
X9432000Y-9354000D01*
X9432000Y-9274000D02*
X9352000Y-9354000D01*
X9352000Y-9719844D02*
X9432000Y-9799844D01*
X9432000Y-9719844D02*
X9352000Y-9799844D01*
X9352000Y-10481844D02*
X9432000Y-10561844D01*
X9432000Y-10481844D02*
X9352000Y-10561844D01*
X9352000Y-10770000D02*
X9432000Y-10850000D01*
X9432000Y-10770000D02*
X9352000Y-10850000D01*
X9352000Y-11532000D02*
X9432000Y-11612000D01*
X9432000Y-11532000D02*
X9352000Y-11612000D01*
X9592000Y-12522000D02*
X9672000Y-12602000D01*
X9672000Y-12522000D02*
X9592000Y-12602000D01*
X10092000Y-12522000D02*
X10172000Y-12602000D01*
X10172000Y-12522000D02*
X10092000Y-12602000D01*
X10727000Y-12202000D02*
X10807000Y-12282000D01*
X10807000Y-12202000D02*
X10727000Y-12282000D01*
X10852500Y-6529500D02*
X10932500Y-6609500D01*
X10932500Y-6529500D02*
X10852500Y-6609500D01*
X10852500Y-6783500D02*
X10932500Y-6863500D01*
X10932500Y-6783500D02*
X10852500Y-6863500D01*
X10852500Y-7037500D02*
X10932500Y-7117500D01*
X10932500Y-7037500D02*
X10852500Y-7117500D01*
X10852500Y-7291500D02*
X10932500Y-7371500D01*
X10932500Y-7291500D02*
X10852500Y-7371500D01*
X10852500Y-7545500D02*
X10932500Y-7625500D01*
X10932500Y-7545500D02*
X10852500Y-7625500D01*
X10852500Y-7799500D02*
X10932500Y-7879500D01*
X10932500Y-7799500D02*
X10852500Y-7879500D01*
X10852500Y-8053500D02*
X10932500Y-8133500D01*
X10932500Y-8053500D02*
X10852500Y-8133500D01*
X10852500Y-8307500D02*
X10932500Y-8387500D01*
X10932500Y-8307500D02*
X10852500Y-8387500D01*
X10852500Y-8561500D02*
X10932500Y-8641500D01*
X10932500Y-8561500D02*
X10852500Y-8641500D01*
X10852500Y-8815500D02*
X10932500Y-8895500D01*
X10932500Y-8815500D02*
X10852500Y-8895500D01*
X10852500Y-9069500D02*
X10932500Y-9149500D01*
X10932500Y-9069500D02*
X10852500Y-9149500D01*
X10852500Y-9323500D02*
X10932500Y-9403500D01*
X10932500Y-9323500D02*
X10852500Y-9403500D01*
X10852500Y-9577500D02*
X10932500Y-9657500D01*
X10932500Y-9577500D02*
X10852500Y-9657500D01*
X10852500Y-9831500D02*
X10932500Y-9911500D01*
X10932500Y-9831500D02*
X10852500Y-9911500D01*
X10852500Y-10085500D02*
X10932500Y-10165500D01*
X10932500Y-10085500D02*
X10852500Y-10165500D01*
X10852500Y-10339500D02*
X10932500Y-10419500D01*
X10932500Y-10339500D02*
X10852500Y-10419500D01*
X10852500Y-10593500D02*
X10932500Y-10673500D01*
X10932500Y-10593500D02*
X10852500Y-10673500D01*
X10852500Y-10847500D02*
X10932500Y-10927500D01*
X10932500Y-10847500D02*
X10852500Y-10927500D01*
X10852500Y-11101500D02*
X10932500Y-11181500D01*
X10932500Y-11101500D02*
X10852500Y-11181500D01*
X11077000Y-12202000D02*
X11157000Y-12282000D01*
X11157000Y-12202000D02*
X11077000Y-12282000D01*
X12560000Y-12562000D02*
X12640000Y-12642000D01*
X12640000Y-12562000D02*
X12560000Y-12642000D01*
X13322000Y-12562000D02*
X13402000Y-12642000D01*
X13402000Y-12562000D02*
X13322000Y-12642000D01*
X13392132Y-10847228D02*
X13472132Y-10927228D01*
X13472132Y-10847228D02*
X13392132Y-10927228D01*
X13392132Y-11101228D02*
X13472132Y-11181228D01*
X13472132Y-11101228D02*
X13392132Y-11181228D01*
X13392500Y-6529500D02*
X13472500Y-6609500D01*
X13472500Y-6529500D02*
X13392500Y-6609500D01*
X13392500Y-6783500D02*
X13472500Y-6863500D01*
X13472500Y-6783500D02*
X13392500Y-6863500D01*
X13392500Y-7037500D02*
X13472500Y-7117500D01*
X13472500Y-7037500D02*
X13392500Y-7117500D01*
X13392500Y-7291500D02*
X13472500Y-7371500D01*
X13472500Y-7291500D02*
X13392500Y-7371500D01*
X13392500Y-7545500D02*
X13472500Y-7625500D01*
X13472500Y-7545500D02*
X13392500Y-7625500D01*
X13392500Y-7799500D02*
X13472500Y-7879500D01*
X13472500Y-7799500D02*
X13392500Y-7879500D01*
X13392500Y-8053500D02*
X13472500Y-8133500D01*
X13472500Y-8053500D02*
X13392500Y-8133500D01*
X13392500Y-8307500D02*
X13472500Y-8387500D01*
X13472500Y-8307500D02*
X13392500Y-8387500D01*
X13392500Y-8561500D02*
X13472500Y-8641500D01*
X13472500Y-8561500D02*
X13392500Y-8641500D01*
X13392500Y-8815500D02*
X13472500Y-8895500D01*
X13472500Y-8815500D02*
X13392500Y-8895500D01*
X13392500Y-9069500D02*
X13472500Y-9149500D01*
X13472500Y-9069500D02*
X13392500Y-9149500D01*
X13392500Y-9323500D02*
X13472500Y-9403500D01*
X13472500Y-9323500D02*
X13392500Y-9403500D01*
X13392500Y-9577500D02*
X13472500Y-9657500D01*
X13472500Y-9577500D02*
X13392500Y-9657500D01*
X13392500Y-9831500D02*
X13472500Y-9911500D01*
X13472500Y-9831500D02*
X13392500Y-9911500D01*
X13392500Y-10085500D02*
X13472500Y-10165500D01*
X13472500Y-10085500D02*
X13392500Y-10165500D01*
X13392500Y-10339500D02*
X13472500Y-10419500D01*
X13472500Y-10339500D02*
X13392500Y-10419500D01*
X13392500Y-10593500D02*
X13472500Y-10673500D01*
X13472500Y-10593500D02*
X13392500Y-10673500D01*
X13810000Y-12572000D02*
X13890000Y-12652000D01*
X13890000Y-12572000D02*
X13810000Y-12652000D01*
X14572000Y-12572000D02*
X14652000Y-12652000D01*
X14652000Y-12572000D02*
X14572000Y-12652000D01*
X15230000Y-11222000D02*
X15310000Y-11302000D01*
X15310000Y-11222000D02*
X15230000Y-11302000D01*
X15992000Y-11222000D02*
X16072000Y-11302000D01*
X16072000Y-11222000D02*
X15992000Y-11302000D01*
X8745000Y-6521844D02*
G75*
G02*
X8650000Y-6521844I-47500J0D01*
G01*
X8650000Y-6521844D02*
G75*
G02*
X8745000Y-6521844I47500J0D01*
G01*
X8745000Y-6771844D02*
G75*
G02*
X8650000Y-6771844I-47500J0D01*
G01*
X8650000Y-6771844D02*
G75*
G02*
X8745000Y-6771844I47500J0D01*
G01*
X8745000Y-7021844D02*
G75*
G02*
X8650000Y-7021844I-47500J0D01*
G01*
X8650000Y-7021844D02*
G75*
G02*
X8745000Y-7021844I47500J0D01*
G01*
X8745000Y-7621844D02*
G75*
G02*
X8650000Y-7621844I-47500J0D01*
G01*
X8650000Y-7621844D02*
G75*
G02*
X8745000Y-7621844I47500J0D01*
G01*
X8745000Y-7871844D02*
G75*
G02*
X8650000Y-7871844I-47500J0D01*
G01*
X8650000Y-7871844D02*
G75*
G02*
X8745000Y-7871844I47500J0D01*
G01*
X8745000Y-8121844D02*
G75*
G02*
X8650000Y-8121844I-47500J0D01*
G01*
X8650000Y-8121844D02*
G75*
G02*
X8745000Y-8121844I47500J0D01*
G01*
X8745000Y-8821844D02*
G75*
G02*
X8650000Y-8821844I-47500J0D01*
G01*
X8650000Y-8821844D02*
G75*
G02*
X8745000Y-8821844I47500J0D01*
G01*
X8745000Y-9071844D02*
G75*
G02*
X8650000Y-9071844I-47500J0D01*
G01*
X8650000Y-9071844D02*
G75*
G02*
X8745000Y-9071844I47500J0D01*
G01*
X8745000Y-9321844D02*
G75*
G02*
X8650000Y-9321844I-47500J0D01*
G01*
X8650000Y-9321844D02*
G75*
G02*
X8745000Y-9321844I47500J0D01*
G01*
X8745000Y-10021844D02*
G75*
G02*
X8650000Y-10021844I-47500J0D01*
G01*
X8650000Y-10021844D02*
G75*
G02*
X8745000Y-10021844I47500J0D01*
G01*
X8745000Y-10271844D02*
G75*
G02*
X8650000Y-10271844I-47500J0D01*
G01*
X8650000Y-10271844D02*
G75*
G02*
X8745000Y-10271844I47500J0D01*
G01*
X8745000Y-10521844D02*
G75*
G02*
X8650000Y-10521844I-47500J0D01*
G01*
X8650000Y-10521844D02*
G75*
G02*
X8745000Y-10521844I47500J0D01*
G01*
X8745000Y-11192000D02*
G75*
G02*
X8650000Y-11192000I-47500J0D01*
G01*
X8650000Y-11192000D02*
G75*
G02*
X8745000Y-11192000I47500J0D01*
G01*
X8745000Y-11442000D02*
G75*
G02*
X8650000Y-11442000I-47500J0D01*
G01*
X8650000Y-11442000D02*
G75*
G02*
X8745000Y-11442000I47500J0D01*
G01*
X8745000Y-11692000D02*
G75*
G02*
X8650000Y-11692000I-47500J0D01*
G01*
X8650000Y-11692000D02*
G75*
G02*
X8745000Y-11692000I47500J0D01*
G01*
X10969500Y-13312000D02*
G75*
G02*
X10874500Y-13312000I-47500J0D01*
G01*
X10874500Y-13312000D02*
G75*
G02*
X10969500Y-13312000I47500J0D01*
G01*
X11219500Y-13312000D02*
G75*
G02*
X11124500Y-13312000I-47500J0D01*
G01*
X11124500Y-13312000D02*
G75*
G02*
X11219500Y-13312000I47500J0D01*
G01*
X11469500Y-13312000D02*
G75*
G02*
X11374500Y-13312000I-47500J0D01*
G01*
X11374500Y-13312000D02*
G75*
G02*
X11469500Y-13312000I47500J0D01*
G01*
X13009500Y-13312000D02*
G75*
G02*
X12914500Y-13312000I-47500J0D01*
G01*
X12914500Y-13312000D02*
G75*
G02*
X13009500Y-13312000I47500J0D01*
G01*
X13259500Y-13312000D02*
G75*
G02*
X13164500Y-13312000I-47500J0D01*
G01*
X13164500Y-13312000D02*
G75*
G02*
X13259500Y-13312000I47500J0D01*
G01*
X13509500Y-13312000D02*
G75*
G02*
X13414500Y-13312000I-47500J0D01*
G01*
X13414500Y-13312000D02*
G75*
G02*
X13509500Y-13312000I47500J0D01*
G01*
X15539500Y-11892000D02*
G75*
G02*
X15444500Y-11892000I-47500J0D01*
G01*
X15444500Y-11892000D02*
G75*
G02*
X15539500Y-11892000I47500J0D01*
G01*
X15539500Y-13382000D02*
G75*
G02*
X15444500Y-13382000I-47500J0D01*
G01*
X15444500Y-13382000D02*
G75*
G02*
X15539500Y-13382000I47500J0D01*
G01*
X15549500Y-12622000D02*
G75*
G02*
X15454500Y-12622000I-47500J0D01*
G01*
X15454500Y-12622000D02*
G75*
G02*
X15549500Y-12622000I47500J0D01*
G01*
X15789500Y-11892000D02*
G75*
G02*
X15694500Y-11892000I-47500J0D01*
G01*
X15694500Y-11892000D02*
G75*
G02*
X15789500Y-11892000I47500J0D01*
G01*
X15789500Y-13382000D02*
G75*
G02*
X15694500Y-13382000I-47500J0D01*
G01*
X15694500Y-13382000D02*
G75*
G02*
X15789500Y-13382000I47500J0D01*
G01*
X15799500Y-12622000D02*
G75*
G02*
X15704500Y-12622000I-47500J0D01*
G01*
X15704500Y-12622000D02*
G75*
G02*
X15799500Y-12622000I47500J0D01*
G01*
X16039500Y-11892000D02*
G75*
G02*
X15944500Y-11892000I-47500J0D01*
G01*
X15944500Y-11892000D02*
G75*
G02*
X16039500Y-11892000I47500J0D01*
G01*
X16039500Y-13382000D02*
G75*
G02*
X15944500Y-13382000I-47500J0D01*
G01*
X15944500Y-13382000D02*
G75*
G02*
X16039500Y-13382000I47500J0D01*
G01*
X16049500Y-12622000D02*
G75*
G02*
X15954500Y-12622000I-47500J0D01*
G01*
X15954500Y-12622000D02*
G75*
G02*
X16049500Y-12622000I47500J0D01*
G01*
X16289500Y-11892000D02*
G75*
G02*
X16194500Y-11892000I-47500J0D01*
G01*
X16194500Y-11892000D02*
G75*
G02*
X16289500Y-11892000I47500J0D01*
G01*
X16299500Y-12622000D02*
G75*
G02*
X16204500Y-12622000I-47500J0D01*
G01*
X16204500Y-12622000D02*
G75*
G02*
X16299500Y-12622000I47500J0D01*
G01*
X16897500Y-10400000D02*
G75*
G02*
X16802500Y-10400000I-47500J0D01*
G01*
X16802500Y-10400000D02*
G75*
G02*
X16897500Y-10400000I47500J0D01*
G01*
X16897500Y-10650000D02*
G75*
G02*
X16802500Y-10650000I-47500J0D01*
G01*
X16802500Y-10650000D02*
G75*
G02*
X16897500Y-10650000I47500J0D01*
G01*
X16897500Y-10900000D02*
G75*
G02*
X16802500Y-10900000I-47500J0D01*
G01*
X16802500Y-10900000D02*
G75*
G02*
X16897500Y-10900000I47500J0D01*
G01*
X10568000Y-6519500D02*
X10568000Y-6619500D01*
X10518000Y-6569500D02*
X10618000Y-6569500D01*
X10568000Y-6773500D02*
X10568000Y-6873500D01*
X10518000Y-6823500D02*
X10618000Y-6823500D01*
X10568000Y-7027500D02*
X10568000Y-7127500D01*
X10518000Y-7077500D02*
X10618000Y-7077500D01*
X10568000Y-7281500D02*
X10568000Y-7381500D01*
X10518000Y-7331500D02*
X10618000Y-7331500D01*
X10568000Y-7535500D02*
X10568000Y-7635500D01*
X10518000Y-7585500D02*
X10618000Y-7585500D01*
X10568000Y-7789500D02*
X10568000Y-7889500D01*
X10518000Y-7839500D02*
X10618000Y-7839500D01*
X10568000Y-8043500D02*
X10568000Y-8143500D01*
X10518000Y-8093500D02*
X10618000Y-8093500D01*
X10568000Y-8297500D02*
X10568000Y-8397500D01*
X10518000Y-8347500D02*
X10618000Y-8347500D01*
X10568000Y-8551500D02*
X10568000Y-8651500D01*
X10518000Y-8601500D02*
X10618000Y-8601500D01*
X10568000Y-8805500D02*
X10568000Y-8905500D01*
X10518000Y-8855500D02*
X10618000Y-8855500D01*
X10568000Y-9059500D02*
X10568000Y-9159500D01*
X10518000Y-9109500D02*
X10618000Y-9109500D01*
X10568000Y-9313500D02*
X10568000Y-9413500D01*
X10518000Y-9363500D02*
X10618000Y-9363500D01*
X10568000Y-9567500D02*
X10568000Y-9667500D01*
X10518000Y-9617500D02*
X10618000Y-9617500D01*
X10568000Y-9821500D02*
X10568000Y-9921500D01*
X10518000Y-9871500D02*
X10618000Y-9871500D01*
X10568000Y-10075500D02*
X10568000Y-10175500D01*
X10518000Y-10125500D02*
X10618000Y-10125500D01*
X10568000Y-10329500D02*
X10568000Y-10429500D01*
X10518000Y-10379500D02*
X10618000Y-10379500D01*
X10568000Y-10583500D02*
X10568000Y-10683500D01*
X10518000Y-10633500D02*
X10618000Y-10633500D01*
X10568000Y-10837500D02*
X10568000Y-10937500D01*
X10518000Y-10887500D02*
X10618000Y-10887500D01*
X10568000Y-11091500D02*
X10568000Y-11191500D01*
X10518000Y-11141500D02*
X10618000Y-11141500D01*
X13760000Y-6511688D02*
X13760000Y-6611688D01*
X13710000Y-6561688D02*
X13810000Y-6561688D01*
X13760000Y-6765688D02*
X13760000Y-6865688D01*
X13710000Y-6815688D02*
X13810000Y-6815688D01*
X13760000Y-7019688D02*
X13760000Y-7119688D01*
X13710000Y-7069688D02*
X13810000Y-7069688D01*
X13760000Y-7273688D02*
X13760000Y-7373688D01*
X13710000Y-7323688D02*
X13810000Y-7323688D01*
X13760000Y-7527688D02*
X13760000Y-7627688D01*
X13710000Y-7577688D02*
X13810000Y-7577688D01*
X13760000Y-7781688D02*
X13760000Y-7881688D01*
X13710000Y-7831688D02*
X13810000Y-7831688D01*
X13760000Y-8035688D02*
X13760000Y-8135688D01*
X13710000Y-8085688D02*
X13810000Y-8085688D01*
X13760000Y-8289688D02*
X13760000Y-8389688D01*
X13710000Y-8339688D02*
X13810000Y-8339688D01*
X13760000Y-8543688D02*
X13760000Y-8643688D01*
X13710000Y-8593688D02*
X13810000Y-8593688D01*
X13760000Y-8797688D02*
X13760000Y-8897688D01*
X13710000Y-8847688D02*
X13810000Y-8847688D01*
X13760000Y-9051688D02*
X13760000Y-9151688D01*
X13710000Y-9101688D02*
X13810000Y-9101688D01*
X13760000Y-9305688D02*
X13760000Y-9405688D01*
X13710000Y-9355688D02*
X13810000Y-9355688D01*
X13760000Y-9559688D02*
X13760000Y-9659688D01*
X13710000Y-9609688D02*
X13810000Y-9609688D01*
X13760000Y-9813688D02*
X13760000Y-9913688D01*
X13710000Y-9863688D02*
X13810000Y-9863688D01*
X13760000Y-10067688D02*
X13760000Y-10167688D01*
X13710000Y-10117688D02*
X13810000Y-10117688D01*
X13760000Y-10321688D02*
X13760000Y-10421688D01*
X13710000Y-10371688D02*
X13810000Y-10371688D01*
X13760000Y-10575688D02*
X13760000Y-10675688D01*
X13710000Y-10625688D02*
X13810000Y-10625688D01*
X13760000Y-10829688D02*
X13760000Y-10929688D01*
X13710000Y-10879688D02*
X13810000Y-10879688D01*
X13760000Y-11083688D02*
X13760000Y-11183688D01*
X13710000Y-11133688D02*
X13810000Y-11133688D01*
X14352000Y-13272000D02*
X14352000Y-13372000D01*
X14302000Y-13322000D02*
X14402000Y-13322000D01*
X14602000Y-13272000D02*
X14602000Y-13372000D01*
X14552000Y-13322000D02*
X14652000Y-13322000D01*
X14780000Y-10422000D02*
X14780000Y-10522000D01*
X14730000Y-10472000D02*
X14830000Y-10472000D01*
X15034000Y-10422000D02*
X15034000Y-10522000D01*
X14984000Y-10472000D02*
X15084000Y-10472000D01*
X15288000Y-10422000D02*
X15288000Y-10522000D01*
X15238000Y-10472000D02*
X15338000Y-10472000D01*
X15542000Y-10422000D02*
X15542000Y-10522000D01*
X15492000Y-10472000D02*
X15592000Y-10472000D01*
X15796000Y-10422000D02*
X15796000Y-10522000D01*
X15746000Y-10472000D02*
X15846000Y-10472000D01*
X16050000Y-10422000D02*
X16050000Y-10522000D01*
X16000000Y-10472000D02*
X16100000Y-10472000D01*
D13*
X8746498Y-12407748D02*
X8746498Y-12308752D01*
X8647502Y-12308752D01*
X8647502Y-12407748D01*
X8746498Y-12407748D01*
X8746498Y-12907748D02*
X8746498Y-12808752D01*
X8647502Y-12808752D01*
X8647502Y-12907748D01*
X8746498Y-12907748D01*
D14*
X8050000Y-6160000D02*
X8210000Y-6000000D01*
X8050000Y-5840000D01*
X7890000Y-6000000D01*
X8050000Y-6160000D01*
X8050000Y-13660000D02*
X8210000Y-13500000D01*
X8050000Y-13340000D01*
X7890000Y-13500000D01*
X8050000Y-13660000D01*
X17050000Y-6160000D02*
X17210000Y-6000000D01*
X17050000Y-5840000D01*
X16890000Y-6000000D01*
X17050000Y-6160000D01*
X17050000Y-13160000D02*
X17210000Y-13000000D01*
X17050000Y-12840000D01*
X16890000Y-13000000D01*
X17050000Y-13160000D01*
D11*
X7808277Y-14313984D02*
X7808277Y-14113984D01*
X7808277Y-14113984D02*
X7855896Y-14113984D01*
X7855896Y-14113984D02*
X7884467Y-14123508D01*
X7884467Y-14123508D02*
X7903515Y-14142555D01*
X7903515Y-14142555D02*
X7913039Y-14161603D01*
X7913039Y-14161603D02*
X7922562Y-14199698D01*
X7922562Y-14199698D02*
X7922562Y-14228269D01*
X7922562Y-14228269D02*
X7913039Y-14266365D01*
X7913039Y-14266365D02*
X7903515Y-14285412D01*
X7903515Y-14285412D02*
X7884467Y-14304460D01*
X7884467Y-14304460D02*
X7855896Y-14313984D01*
X7855896Y-14313984D02*
X7808277Y-14313984D01*
X8008277Y-14313984D02*
X8008277Y-14180650D01*
X8008277Y-14218746D02*
X8017801Y-14199698D01*
X8017801Y-14199698D02*
X8027324Y-14190174D01*
X8027324Y-14190174D02*
X8046372Y-14180650D01*
X8046372Y-14180650D02*
X8065420Y-14180650D01*
X8132086Y-14313984D02*
X8132086Y-14180650D01*
X8132086Y-14113984D02*
X8122562Y-14123508D01*
X8122562Y-14123508D02*
X8132086Y-14133031D01*
X8132086Y-14133031D02*
X8141610Y-14123508D01*
X8141610Y-14123508D02*
X8132086Y-14113984D01*
X8132086Y-14113984D02*
X8132086Y-14133031D01*
X8255896Y-14313984D02*
X8236848Y-14304460D01*
X8236848Y-14304460D02*
X8227324Y-14285412D01*
X8227324Y-14285412D02*
X8227324Y-14113984D01*
X8360658Y-14313984D02*
X8341610Y-14304460D01*
X8341610Y-14304460D02*
X8332086Y-14285412D01*
X8332086Y-14285412D02*
X8332086Y-14113984D01*
X8589229Y-14313984D02*
X8589229Y-14113984D01*
X8589229Y-14113984D02*
X8655896Y-14256841D01*
X8655896Y-14256841D02*
X8722563Y-14113984D01*
X8722563Y-14113984D02*
X8722563Y-14313984D01*
X8903515Y-14313984D02*
X8903515Y-14209222D01*
X8903515Y-14209222D02*
X8893991Y-14190174D01*
X8893991Y-14190174D02*
X8874944Y-14180650D01*
X8874944Y-14180650D02*
X8836848Y-14180650D01*
X8836848Y-14180650D02*
X8817801Y-14190174D01*
X8903515Y-14304460D02*
X8884467Y-14313984D01*
X8884467Y-14313984D02*
X8836848Y-14313984D01*
X8836848Y-14313984D02*
X8817801Y-14304460D01*
X8817801Y-14304460D02*
X8808277Y-14285412D01*
X8808277Y-14285412D02*
X8808277Y-14266365D01*
X8808277Y-14266365D02*
X8817801Y-14247317D01*
X8817801Y-14247317D02*
X8836848Y-14237793D01*
X8836848Y-14237793D02*
X8884467Y-14237793D01*
X8884467Y-14237793D02*
X8903515Y-14228269D01*
X8998753Y-14180650D02*
X8998753Y-14380650D01*
X8998753Y-14190174D02*
X9017801Y-14180650D01*
X9017801Y-14180650D02*
X9055896Y-14180650D01*
X9055896Y-14180650D02*
X9074944Y-14190174D01*
X9074944Y-14190174D02*
X9084467Y-14199698D01*
X9084467Y-14199698D02*
X9093991Y-14218746D01*
X9093991Y-14218746D02*
X9093991Y-14275888D01*
X9093991Y-14275888D02*
X9084467Y-14294936D01*
X9084467Y-14294936D02*
X9074944Y-14304460D01*
X9074944Y-14304460D02*
X9055896Y-14313984D01*
X9055896Y-14313984D02*
X9017801Y-14313984D01*
X9017801Y-14313984D02*
X8998753Y-14304460D01*
X9179705Y-14294936D02*
X9189229Y-14304460D01*
X9189229Y-14304460D02*
X9179705Y-14313984D01*
X9179705Y-14313984D02*
X9170182Y-14304460D01*
X9170182Y-14304460D02*
X9179705Y-14294936D01*
X9179705Y-14294936D02*
X9179705Y-14313984D01*
X9179705Y-14190174D02*
X9189229Y-14199698D01*
X9189229Y-14199698D02*
X9179705Y-14209222D01*
X9179705Y-14209222D02*
X9170182Y-14199698D01*
X9170182Y-14199698D02*
X9179705Y-14190174D01*
X9179705Y-14190174D02*
X9179705Y-14209222D01*
D12*
X7467500Y-14602500D02*
X7547500Y-14682500D01*
X7547500Y-14602500D02*
X7467500Y-14682500D01*
D11*
X7846372Y-14533984D02*
X7865420Y-14533984D01*
X7865420Y-14533984D02*
X7884467Y-14543508D01*
X7884467Y-14543508D02*
X7893991Y-14553031D01*
X7893991Y-14553031D02*
X7903515Y-14572079D01*
X7903515Y-14572079D02*
X7913039Y-14610174D01*
X7913039Y-14610174D02*
X7913039Y-14657793D01*
X7913039Y-14657793D02*
X7903515Y-14695888D01*
X7903515Y-14695888D02*
X7893991Y-14714936D01*
X7893991Y-14714936D02*
X7884467Y-14724460D01*
X7884467Y-14724460D02*
X7865420Y-14733984D01*
X7865420Y-14733984D02*
X7846372Y-14733984D01*
X7846372Y-14733984D02*
X7827324Y-14724460D01*
X7827324Y-14724460D02*
X7817801Y-14714936D01*
X7817801Y-14714936D02*
X7808277Y-14695888D01*
X7808277Y-14695888D02*
X7798753Y-14657793D01*
X7798753Y-14657793D02*
X7798753Y-14610174D01*
X7798753Y-14610174D02*
X7808277Y-14572079D01*
X7808277Y-14572079D02*
X7817801Y-14553031D01*
X7817801Y-14553031D02*
X7827324Y-14543508D01*
X7827324Y-14543508D02*
X7846372Y-14533984D01*
X7998753Y-14714936D02*
X8008277Y-14724460D01*
X8008277Y-14724460D02*
X7998753Y-14733984D01*
X7998753Y-14733984D02*
X7989229Y-14724460D01*
X7989229Y-14724460D02*
X7998753Y-14714936D01*
X7998753Y-14714936D02*
X7998753Y-14733984D01*
X8122562Y-14619698D02*
X8103515Y-14610174D01*
X8103515Y-14610174D02*
X8093991Y-14600650D01*
X8093991Y-14600650D02*
X8084467Y-14581603D01*
X8084467Y-14581603D02*
X8084467Y-14572079D01*
X8084467Y-14572079D02*
X8093991Y-14553031D01*
X8093991Y-14553031D02*
X8103515Y-14543508D01*
X8103515Y-14543508D02*
X8122562Y-14533984D01*
X8122562Y-14533984D02*
X8160658Y-14533984D01*
X8160658Y-14533984D02*
X8179705Y-14543508D01*
X8179705Y-14543508D02*
X8189229Y-14553031D01*
X8189229Y-14553031D02*
X8198753Y-14572079D01*
X8198753Y-14572079D02*
X8198753Y-14581603D01*
X8198753Y-14581603D02*
X8189229Y-14600650D01*
X8189229Y-14600650D02*
X8179705Y-14610174D01*
X8179705Y-14610174D02*
X8160658Y-14619698D01*
X8160658Y-14619698D02*
X8122562Y-14619698D01*
X8122562Y-14619698D02*
X8103515Y-14629222D01*
X8103515Y-14629222D02*
X8093991Y-14638746D01*
X8093991Y-14638746D02*
X8084467Y-14657793D01*
X8084467Y-14657793D02*
X8084467Y-14695888D01*
X8084467Y-14695888D02*
X8093991Y-14714936D01*
X8093991Y-14714936D02*
X8103515Y-14724460D01*
X8103515Y-14724460D02*
X8122562Y-14733984D01*
X8122562Y-14733984D02*
X8160658Y-14733984D01*
X8160658Y-14733984D02*
X8179705Y-14724460D01*
X8179705Y-14724460D02*
X8189229Y-14714936D01*
X8189229Y-14714936D02*
X8198753Y-14695888D01*
X8198753Y-14695888D02*
X8198753Y-14657793D01*
X8198753Y-14657793D02*
X8189229Y-14638746D01*
X8189229Y-14638746D02*
X8179705Y-14629222D01*
X8179705Y-14629222D02*
X8160658Y-14619698D01*
X8322562Y-14533984D02*
X8341610Y-14533984D01*
X8341610Y-14533984D02*
X8360658Y-14543508D01*
X8360658Y-14543508D02*
X8370182Y-14553031D01*
X8370182Y-14553031D02*
X8379705Y-14572079D01*
X8379705Y-14572079D02*
X8389229Y-14610174D01*
X8389229Y-14610174D02*
X8389229Y-14657793D01*
X8389229Y-14657793D02*
X8379705Y-14695888D01*
X8379705Y-14695888D02*
X8370182Y-14714936D01*
X8370182Y-14714936D02*
X8360658Y-14724460D01*
X8360658Y-14724460D02*
X8341610Y-14733984D01*
X8341610Y-14733984D02*
X8322562Y-14733984D01*
X8322562Y-14733984D02*
X8303515Y-14724460D01*
X8303515Y-14724460D02*
X8293991Y-14714936D01*
X8293991Y-14714936D02*
X8284467Y-14695888D01*
X8284467Y-14695888D02*
X8274943Y-14657793D01*
X8274943Y-14657793D02*
X8274943Y-14610174D01*
X8274943Y-14610174D02*
X8284467Y-14572079D01*
X8284467Y-14572079D02*
X8293991Y-14553031D01*
X8293991Y-14553031D02*
X8303515Y-14543508D01*
X8303515Y-14543508D02*
X8322562Y-14533984D01*
X8513039Y-14533984D02*
X8532086Y-14533984D01*
X8532086Y-14533984D02*
X8551134Y-14543508D01*
X8551134Y-14543508D02*
X8560658Y-14553031D01*
X8560658Y-14553031D02*
X8570182Y-14572079D01*
X8570182Y-14572079D02*
X8579705Y-14610174D01*
X8579705Y-14610174D02*
X8579705Y-14657793D01*
X8579705Y-14657793D02*
X8570182Y-14695888D01*
X8570182Y-14695888D02*
X8560658Y-14714936D01*
X8560658Y-14714936D02*
X8551134Y-14724460D01*
X8551134Y-14724460D02*
X8532086Y-14733984D01*
X8532086Y-14733984D02*
X8513039Y-14733984D01*
X8513039Y-14733984D02*
X8493991Y-14724460D01*
X8493991Y-14724460D02*
X8484467Y-14714936D01*
X8484467Y-14714936D02*
X8474944Y-14695888D01*
X8474944Y-14695888D02*
X8465420Y-14657793D01*
X8465420Y-14657793D02*
X8465420Y-14610174D01*
X8465420Y-14610174D02*
X8474944Y-14572079D01*
X8474944Y-14572079D02*
X8484467Y-14553031D01*
X8484467Y-14553031D02*
X8493991Y-14543508D01*
X8493991Y-14543508D02*
X8513039Y-14533984D01*
X8665420Y-14733984D02*
X8665420Y-14600650D01*
X8665420Y-14619698D02*
X8674944Y-14610174D01*
X8674944Y-14610174D02*
X8693991Y-14600650D01*
X8693991Y-14600650D02*
X8722563Y-14600650D01*
X8722563Y-14600650D02*
X8741610Y-14610174D01*
X8741610Y-14610174D02*
X8751134Y-14629222D01*
X8751134Y-14629222D02*
X8751134Y-14733984D01*
X8751134Y-14629222D02*
X8760658Y-14610174D01*
X8760658Y-14610174D02*
X8779705Y-14600650D01*
X8779705Y-14600650D02*
X8808277Y-14600650D01*
X8808277Y-14600650D02*
X8827325Y-14610174D01*
X8827325Y-14610174D02*
X8836848Y-14629222D01*
X8836848Y-14629222D02*
X8836848Y-14733984D01*
X8932086Y-14733984D02*
X8932086Y-14600650D01*
X8932086Y-14619698D02*
X8941610Y-14610174D01*
X8941610Y-14610174D02*
X8960658Y-14600650D01*
X8960658Y-14600650D02*
X8989229Y-14600650D01*
X8989229Y-14600650D02*
X9008277Y-14610174D01*
X9008277Y-14610174D02*
X9017801Y-14629222D01*
X9017801Y-14629222D02*
X9017801Y-14733984D01*
X9017801Y-14629222D02*
X9027325Y-14610174D01*
X9027325Y-14610174D02*
X9046372Y-14600650D01*
X9046372Y-14600650D02*
X9074944Y-14600650D01*
X9074944Y-14600650D02*
X9093991Y-14610174D01*
X9093991Y-14610174D02*
X9103515Y-14629222D01*
X9103515Y-14629222D02*
X9103515Y-14733984D01*
X9493991Y-14524460D02*
X9322563Y-14781603D01*
X9751134Y-14533984D02*
X9770182Y-14533984D01*
X9770182Y-14533984D02*
X9789229Y-14543508D01*
X9789229Y-14543508D02*
X9798753Y-14553031D01*
X9798753Y-14553031D02*
X9808277Y-14572079D01*
X9808277Y-14572079D02*
X9817801Y-14610174D01*
X9817801Y-14610174D02*
X9817801Y-14657793D01*
X9817801Y-14657793D02*
X9808277Y-14695888D01*
X9808277Y-14695888D02*
X9798753Y-14714936D01*
X9798753Y-14714936D02*
X9789229Y-14724460D01*
X9789229Y-14724460D02*
X9770182Y-14733984D01*
X9770182Y-14733984D02*
X9751134Y-14733984D01*
X9751134Y-14733984D02*
X9732087Y-14724460D01*
X9732087Y-14724460D02*
X9722563Y-14714936D01*
X9722563Y-14714936D02*
X9713039Y-14695888D01*
X9713039Y-14695888D02*
X9703515Y-14657793D01*
X9703515Y-14657793D02*
X9703515Y-14610174D01*
X9703515Y-14610174D02*
X9713039Y-14572079D01*
X9713039Y-14572079D02*
X9722563Y-14553031D01*
X9722563Y-14553031D02*
X9732087Y-14543508D01*
X9732087Y-14543508D02*
X9751134Y-14533984D01*
X9903515Y-14714936D02*
X9913039Y-14724460D01*
X9913039Y-14724460D02*
X9903515Y-14733984D01*
X9903515Y-14733984D02*
X9893991Y-14724460D01*
X9893991Y-14724460D02*
X9903515Y-14714936D01*
X9903515Y-14714936D02*
X9903515Y-14733984D01*
X10036848Y-14533984D02*
X10055896Y-14533984D01*
X10055896Y-14533984D02*
X10074944Y-14543508D01*
X10074944Y-14543508D02*
X10084468Y-14553031D01*
X10084468Y-14553031D02*
X10093991Y-14572079D01*
X10093991Y-14572079D02*
X10103515Y-14610174D01*
X10103515Y-14610174D02*
X10103515Y-14657793D01*
X10103515Y-14657793D02*
X10093991Y-14695888D01*
X10093991Y-14695888D02*
X10084468Y-14714936D01*
X10084468Y-14714936D02*
X10074944Y-14724460D01*
X10074944Y-14724460D02*
X10055896Y-14733984D01*
X10055896Y-14733984D02*
X10036848Y-14733984D01*
X10036848Y-14733984D02*
X10017801Y-14724460D01*
X10017801Y-14724460D02*
X10008277Y-14714936D01*
X10008277Y-14714936D02*
X9998753Y-14695888D01*
X9998753Y-14695888D02*
X9989229Y-14657793D01*
X9989229Y-14657793D02*
X9989229Y-14610174D01*
X9989229Y-14610174D02*
X9998753Y-14572079D01*
X9998753Y-14572079D02*
X10008277Y-14553031D01*
X10008277Y-14553031D02*
X10017801Y-14543508D01*
X10017801Y-14543508D02*
X10036848Y-14533984D01*
X10170182Y-14533984D02*
X10293991Y-14533984D01*
X10293991Y-14533984D02*
X10227325Y-14610174D01*
X10227325Y-14610174D02*
X10255896Y-14610174D01*
X10255896Y-14610174D02*
X10274944Y-14619698D01*
X10274944Y-14619698D02*
X10284468Y-14629222D01*
X10284468Y-14629222D02*
X10293991Y-14648269D01*
X10293991Y-14648269D02*
X10293991Y-14695888D01*
X10293991Y-14695888D02*
X10284468Y-14714936D01*
X10284468Y-14714936D02*
X10274944Y-14724460D01*
X10274944Y-14724460D02*
X10255896Y-14733984D01*
X10255896Y-14733984D02*
X10198753Y-14733984D01*
X10198753Y-14733984D02*
X10179706Y-14724460D01*
X10179706Y-14724460D02*
X10170182Y-14714936D01*
X10484468Y-14733984D02*
X10370182Y-14733984D01*
X10427325Y-14733984D02*
X10427325Y-14533984D01*
X10427325Y-14533984D02*
X10408277Y-14562555D01*
X10408277Y-14562555D02*
X10389229Y-14581603D01*
X10389229Y-14581603D02*
X10370182Y-14591127D01*
X10665420Y-14533984D02*
X10570182Y-14533984D01*
X10570182Y-14533984D02*
X10560658Y-14629222D01*
X10560658Y-14629222D02*
X10570182Y-14619698D01*
X10570182Y-14619698D02*
X10589229Y-14610174D01*
X10589229Y-14610174D02*
X10636849Y-14610174D01*
X10636849Y-14610174D02*
X10655896Y-14619698D01*
X10655896Y-14619698D02*
X10665420Y-14629222D01*
X10665420Y-14629222D02*
X10674944Y-14648269D01*
X10674944Y-14648269D02*
X10674944Y-14695888D01*
X10674944Y-14695888D02*
X10665420Y-14714936D01*
X10665420Y-14714936D02*
X10655896Y-14724460D01*
X10655896Y-14724460D02*
X10636849Y-14733984D01*
X10636849Y-14733984D02*
X10589229Y-14733984D01*
X10589229Y-14733984D02*
X10570182Y-14724460D01*
X10570182Y-14724460D02*
X10560658Y-14714936D01*
X10751134Y-14533984D02*
X10751134Y-14572079D01*
X10827325Y-14533984D02*
X10827325Y-14572079D01*
X11122563Y-14810174D02*
X11113039Y-14800650D01*
X11113039Y-14800650D02*
X11093991Y-14772079D01*
X11093991Y-14772079D02*
X11084468Y-14753031D01*
X11084468Y-14753031D02*
X11074944Y-14724460D01*
X11074944Y-14724460D02*
X11065420Y-14676841D01*
X11065420Y-14676841D02*
X11065420Y-14638746D01*
X11065420Y-14638746D02*
X11074944Y-14591127D01*
X11074944Y-14591127D02*
X11084468Y-14562555D01*
X11084468Y-14562555D02*
X11093991Y-14543508D01*
X11093991Y-14543508D02*
X11113039Y-14514936D01*
X11113039Y-14514936D02*
X11122563Y-14505412D01*
X11293991Y-14533984D02*
X11198753Y-14533984D01*
X11198753Y-14533984D02*
X11189229Y-14629222D01*
X11189229Y-14629222D02*
X11198753Y-14619698D01*
X11198753Y-14619698D02*
X11217801Y-14610174D01*
X11217801Y-14610174D02*
X11265420Y-14610174D01*
X11265420Y-14610174D02*
X11284468Y-14619698D01*
X11284468Y-14619698D02*
X11293991Y-14629222D01*
X11293991Y-14629222D02*
X11303515Y-14648269D01*
X11303515Y-14648269D02*
X11303515Y-14695888D01*
X11303515Y-14695888D02*
X11293991Y-14714936D01*
X11293991Y-14714936D02*
X11284468Y-14724460D01*
X11284468Y-14724460D02*
X11265420Y-14733984D01*
X11265420Y-14733984D02*
X11217801Y-14733984D01*
X11217801Y-14733984D02*
X11198753Y-14724460D01*
X11198753Y-14724460D02*
X11189229Y-14714936D01*
X11417801Y-14619698D02*
X11398753Y-14610174D01*
X11398753Y-14610174D02*
X11389229Y-14600650D01*
X11389229Y-14600650D02*
X11379706Y-14581603D01*
X11379706Y-14581603D02*
X11379706Y-14572079D01*
X11379706Y-14572079D02*
X11389229Y-14553031D01*
X11389229Y-14553031D02*
X11398753Y-14543508D01*
X11398753Y-14543508D02*
X11417801Y-14533984D01*
X11417801Y-14533984D02*
X11455896Y-14533984D01*
X11455896Y-14533984D02*
X11474944Y-14543508D01*
X11474944Y-14543508D02*
X11484468Y-14553031D01*
X11484468Y-14553031D02*
X11493991Y-14572079D01*
X11493991Y-14572079D02*
X11493991Y-14581603D01*
X11493991Y-14581603D02*
X11484468Y-14600650D01*
X11484468Y-14600650D02*
X11474944Y-14610174D01*
X11474944Y-14610174D02*
X11455896Y-14619698D01*
X11455896Y-14619698D02*
X11417801Y-14619698D01*
X11417801Y-14619698D02*
X11398753Y-14629222D01*
X11398753Y-14629222D02*
X11389229Y-14638746D01*
X11389229Y-14638746D02*
X11379706Y-14657793D01*
X11379706Y-14657793D02*
X11379706Y-14695888D01*
X11379706Y-14695888D02*
X11389229Y-14714936D01*
X11389229Y-14714936D02*
X11398753Y-14724460D01*
X11398753Y-14724460D02*
X11417801Y-14733984D01*
X11417801Y-14733984D02*
X11455896Y-14733984D01*
X11455896Y-14733984D02*
X11474944Y-14724460D01*
X11474944Y-14724460D02*
X11484468Y-14714936D01*
X11484468Y-14714936D02*
X11493991Y-14695888D01*
X11493991Y-14695888D02*
X11493991Y-14657793D01*
X11493991Y-14657793D02*
X11484468Y-14638746D01*
X11484468Y-14638746D02*
X11474944Y-14629222D01*
X11474944Y-14629222D02*
X11455896Y-14619698D01*
X11732087Y-14733984D02*
X11732087Y-14533984D01*
X11817801Y-14733984D02*
X11817801Y-14629222D01*
X11817801Y-14629222D02*
X11808277Y-14610174D01*
X11808277Y-14610174D02*
X11789230Y-14600650D01*
X11789230Y-14600650D02*
X11760658Y-14600650D01*
X11760658Y-14600650D02*
X11741610Y-14610174D01*
X11741610Y-14610174D02*
X11732087Y-14619698D01*
X11941610Y-14733984D02*
X11922563Y-14724460D01*
X11922563Y-14724460D02*
X11913039Y-14714936D01*
X11913039Y-14714936D02*
X11903515Y-14695888D01*
X11903515Y-14695888D02*
X11903515Y-14638746D01*
X11903515Y-14638746D02*
X11913039Y-14619698D01*
X11913039Y-14619698D02*
X11922563Y-14610174D01*
X11922563Y-14610174D02*
X11941610Y-14600650D01*
X11941610Y-14600650D02*
X11970182Y-14600650D01*
X11970182Y-14600650D02*
X11989230Y-14610174D01*
X11989230Y-14610174D02*
X11998753Y-14619698D01*
X11998753Y-14619698D02*
X12008277Y-14638746D01*
X12008277Y-14638746D02*
X12008277Y-14695888D01*
X12008277Y-14695888D02*
X11998753Y-14714936D01*
X11998753Y-14714936D02*
X11989230Y-14724460D01*
X11989230Y-14724460D02*
X11970182Y-14733984D01*
X11970182Y-14733984D02*
X11941610Y-14733984D01*
X12122563Y-14733984D02*
X12103515Y-14724460D01*
X12103515Y-14724460D02*
X12093991Y-14705412D01*
X12093991Y-14705412D02*
X12093991Y-14533984D01*
X12274944Y-14724460D02*
X12255896Y-14733984D01*
X12255896Y-14733984D02*
X12217801Y-14733984D01*
X12217801Y-14733984D02*
X12198753Y-14724460D01*
X12198753Y-14724460D02*
X12189230Y-14705412D01*
X12189230Y-14705412D02*
X12189230Y-14629222D01*
X12189230Y-14629222D02*
X12198753Y-14610174D01*
X12198753Y-14610174D02*
X12217801Y-14600650D01*
X12217801Y-14600650D02*
X12255896Y-14600650D01*
X12255896Y-14600650D02*
X12274944Y-14610174D01*
X12274944Y-14610174D02*
X12284468Y-14629222D01*
X12284468Y-14629222D02*
X12284468Y-14648269D01*
X12284468Y-14648269D02*
X12189230Y-14667317D01*
X12360658Y-14724460D02*
X12379706Y-14733984D01*
X12379706Y-14733984D02*
X12417801Y-14733984D01*
X12417801Y-14733984D02*
X12436849Y-14724460D01*
X12436849Y-14724460D02*
X12446372Y-14705412D01*
X12446372Y-14705412D02*
X12446372Y-14695888D01*
X12446372Y-14695888D02*
X12436849Y-14676841D01*
X12436849Y-14676841D02*
X12417801Y-14667317D01*
X12417801Y-14667317D02*
X12389230Y-14667317D01*
X12389230Y-14667317D02*
X12370182Y-14657793D01*
X12370182Y-14657793D02*
X12360658Y-14638746D01*
X12360658Y-14638746D02*
X12360658Y-14629222D01*
X12360658Y-14629222D02*
X12370182Y-14610174D01*
X12370182Y-14610174D02*
X12389230Y-14600650D01*
X12389230Y-14600650D02*
X12417801Y-14600650D01*
X12417801Y-14600650D02*
X12436849Y-14610174D01*
X12513039Y-14810174D02*
X12522563Y-14800650D01*
X12522563Y-14800650D02*
X12541611Y-14772079D01*
X12541611Y-14772079D02*
X12551134Y-14753031D01*
X12551134Y-14753031D02*
X12560658Y-14724460D01*
X12560658Y-14724460D02*
X12570182Y-14676841D01*
X12570182Y-14676841D02*
X12570182Y-14638746D01*
X12570182Y-14638746D02*
X12560658Y-14591127D01*
X12560658Y-14591127D02*
X12551134Y-14562555D01*
X12551134Y-14562555D02*
X12541611Y-14543508D01*
X12541611Y-14543508D02*
X12522563Y-14514936D01*
X12522563Y-14514936D02*
X12513039Y-14505412D01*
D12*
X7547500Y-14906500D02*
G75*
G02*
X7452500Y-14906500I-47500J0D01*
G01*
X7452500Y-14906500D02*
G75*
G02*
X7547500Y-14906500I47500J0D01*
G01*
D11*
X7846372Y-14797984D02*
X7865420Y-14797984D01*
X7865420Y-14797984D02*
X7884467Y-14807508D01*
X7884467Y-14807508D02*
X7893991Y-14817031D01*
X7893991Y-14817031D02*
X7903515Y-14836079D01*
X7903515Y-14836079D02*
X7913039Y-14874174D01*
X7913039Y-14874174D02*
X7913039Y-14921793D01*
X7913039Y-14921793D02*
X7903515Y-14959888D01*
X7903515Y-14959888D02*
X7893991Y-14978936D01*
X7893991Y-14978936D02*
X7884467Y-14988460D01*
X7884467Y-14988460D02*
X7865420Y-14997984D01*
X7865420Y-14997984D02*
X7846372Y-14997984D01*
X7846372Y-14997984D02*
X7827324Y-14988460D01*
X7827324Y-14988460D02*
X7817801Y-14978936D01*
X7817801Y-14978936D02*
X7808277Y-14959888D01*
X7808277Y-14959888D02*
X7798753Y-14921793D01*
X7798753Y-14921793D02*
X7798753Y-14874174D01*
X7798753Y-14874174D02*
X7808277Y-14836079D01*
X7808277Y-14836079D02*
X7817801Y-14817031D01*
X7817801Y-14817031D02*
X7827324Y-14807508D01*
X7827324Y-14807508D02*
X7846372Y-14797984D01*
X7998753Y-14978936D02*
X8008277Y-14988460D01*
X8008277Y-14988460D02*
X7998753Y-14997984D01*
X7998753Y-14997984D02*
X7989229Y-14988460D01*
X7989229Y-14988460D02*
X7998753Y-14978936D01*
X7998753Y-14978936D02*
X7998753Y-14997984D01*
X8103515Y-14997984D02*
X8141610Y-14997984D01*
X8141610Y-14997984D02*
X8160658Y-14988460D01*
X8160658Y-14988460D02*
X8170182Y-14978936D01*
X8170182Y-14978936D02*
X8189229Y-14950365D01*
X8189229Y-14950365D02*
X8198753Y-14912269D01*
X8198753Y-14912269D02*
X8198753Y-14836079D01*
X8198753Y-14836079D02*
X8189229Y-14817031D01*
X8189229Y-14817031D02*
X8179705Y-14807508D01*
X8179705Y-14807508D02*
X8160658Y-14797984D01*
X8160658Y-14797984D02*
X8122562Y-14797984D01*
X8122562Y-14797984D02*
X8103515Y-14807508D01*
X8103515Y-14807508D02*
X8093991Y-14817031D01*
X8093991Y-14817031D02*
X8084467Y-14836079D01*
X8084467Y-14836079D02*
X8084467Y-14883698D01*
X8084467Y-14883698D02*
X8093991Y-14902746D01*
X8093991Y-14902746D02*
X8103515Y-14912269D01*
X8103515Y-14912269D02*
X8122562Y-14921793D01*
X8122562Y-14921793D02*
X8160658Y-14921793D01*
X8160658Y-14921793D02*
X8179705Y-14912269D01*
X8179705Y-14912269D02*
X8189229Y-14902746D01*
X8189229Y-14902746D02*
X8198753Y-14883698D01*
X8379705Y-14797984D02*
X8284467Y-14797984D01*
X8284467Y-14797984D02*
X8274943Y-14893222D01*
X8274943Y-14893222D02*
X8284467Y-14883698D01*
X8284467Y-14883698D02*
X8303515Y-14874174D01*
X8303515Y-14874174D02*
X8351134Y-14874174D01*
X8351134Y-14874174D02*
X8370182Y-14883698D01*
X8370182Y-14883698D02*
X8379705Y-14893222D01*
X8379705Y-14893222D02*
X8389229Y-14912269D01*
X8389229Y-14912269D02*
X8389229Y-14959888D01*
X8389229Y-14959888D02*
X8379705Y-14978936D01*
X8379705Y-14978936D02*
X8370182Y-14988460D01*
X8370182Y-14988460D02*
X8351134Y-14997984D01*
X8351134Y-14997984D02*
X8303515Y-14997984D01*
X8303515Y-14997984D02*
X8284467Y-14988460D01*
X8284467Y-14988460D02*
X8274943Y-14978936D01*
X8513039Y-14797984D02*
X8532086Y-14797984D01*
X8532086Y-14797984D02*
X8551134Y-14807508D01*
X8551134Y-14807508D02*
X8560658Y-14817031D01*
X8560658Y-14817031D02*
X8570182Y-14836079D01*
X8570182Y-14836079D02*
X8579705Y-14874174D01*
X8579705Y-14874174D02*
X8579705Y-14921793D01*
X8579705Y-14921793D02*
X8570182Y-14959888D01*
X8570182Y-14959888D02*
X8560658Y-14978936D01*
X8560658Y-14978936D02*
X8551134Y-14988460D01*
X8551134Y-14988460D02*
X8532086Y-14997984D01*
X8532086Y-14997984D02*
X8513039Y-14997984D01*
X8513039Y-14997984D02*
X8493991Y-14988460D01*
X8493991Y-14988460D02*
X8484467Y-14978936D01*
X8484467Y-14978936D02*
X8474944Y-14959888D01*
X8474944Y-14959888D02*
X8465420Y-14921793D01*
X8465420Y-14921793D02*
X8465420Y-14874174D01*
X8465420Y-14874174D02*
X8474944Y-14836079D01*
X8474944Y-14836079D02*
X8484467Y-14817031D01*
X8484467Y-14817031D02*
X8493991Y-14807508D01*
X8493991Y-14807508D02*
X8513039Y-14797984D01*
X8665420Y-14997984D02*
X8665420Y-14864650D01*
X8665420Y-14883698D02*
X8674944Y-14874174D01*
X8674944Y-14874174D02*
X8693991Y-14864650D01*
X8693991Y-14864650D02*
X8722563Y-14864650D01*
X8722563Y-14864650D02*
X8741610Y-14874174D01*
X8741610Y-14874174D02*
X8751134Y-14893222D01*
X8751134Y-14893222D02*
X8751134Y-14997984D01*
X8751134Y-14893222D02*
X8760658Y-14874174D01*
X8760658Y-14874174D02*
X8779705Y-14864650D01*
X8779705Y-14864650D02*
X8808277Y-14864650D01*
X8808277Y-14864650D02*
X8827325Y-14874174D01*
X8827325Y-14874174D02*
X8836848Y-14893222D01*
X8836848Y-14893222D02*
X8836848Y-14997984D01*
X8932086Y-14997984D02*
X8932086Y-14864650D01*
X8932086Y-14883698D02*
X8941610Y-14874174D01*
X8941610Y-14874174D02*
X8960658Y-14864650D01*
X8960658Y-14864650D02*
X8989229Y-14864650D01*
X8989229Y-14864650D02*
X9008277Y-14874174D01*
X9008277Y-14874174D02*
X9017801Y-14893222D01*
X9017801Y-14893222D02*
X9017801Y-14997984D01*
X9017801Y-14893222D02*
X9027325Y-14874174D01*
X9027325Y-14874174D02*
X9046372Y-14864650D01*
X9046372Y-14864650D02*
X9074944Y-14864650D01*
X9074944Y-14864650D02*
X9093991Y-14874174D01*
X9093991Y-14874174D02*
X9103515Y-14893222D01*
X9103515Y-14893222D02*
X9103515Y-14997984D01*
X9493991Y-14788460D02*
X9322563Y-15045603D01*
X9751134Y-14797984D02*
X9770182Y-14797984D01*
X9770182Y-14797984D02*
X9789229Y-14807508D01*
X9789229Y-14807508D02*
X9798753Y-14817031D01*
X9798753Y-14817031D02*
X9808277Y-14836079D01*
X9808277Y-14836079D02*
X9817801Y-14874174D01*
X9817801Y-14874174D02*
X9817801Y-14921793D01*
X9817801Y-14921793D02*
X9808277Y-14959888D01*
X9808277Y-14959888D02*
X9798753Y-14978936D01*
X9798753Y-14978936D02*
X9789229Y-14988460D01*
X9789229Y-14988460D02*
X9770182Y-14997984D01*
X9770182Y-14997984D02*
X9751134Y-14997984D01*
X9751134Y-14997984D02*
X9732087Y-14988460D01*
X9732087Y-14988460D02*
X9722563Y-14978936D01*
X9722563Y-14978936D02*
X9713039Y-14959888D01*
X9713039Y-14959888D02*
X9703515Y-14921793D01*
X9703515Y-14921793D02*
X9703515Y-14874174D01*
X9703515Y-14874174D02*
X9713039Y-14836079D01*
X9713039Y-14836079D02*
X9722563Y-14817031D01*
X9722563Y-14817031D02*
X9732087Y-14807508D01*
X9732087Y-14807508D02*
X9751134Y-14797984D01*
X9903515Y-14978936D02*
X9913039Y-14988460D01*
X9913039Y-14988460D02*
X9903515Y-14997984D01*
X9903515Y-14997984D02*
X9893991Y-14988460D01*
X9893991Y-14988460D02*
X9903515Y-14978936D01*
X9903515Y-14978936D02*
X9903515Y-14997984D01*
X10036848Y-14797984D02*
X10055896Y-14797984D01*
X10055896Y-14797984D02*
X10074944Y-14807508D01*
X10074944Y-14807508D02*
X10084468Y-14817031D01*
X10084468Y-14817031D02*
X10093991Y-14836079D01*
X10093991Y-14836079D02*
X10103515Y-14874174D01*
X10103515Y-14874174D02*
X10103515Y-14921793D01*
X10103515Y-14921793D02*
X10093991Y-14959888D01*
X10093991Y-14959888D02*
X10084468Y-14978936D01*
X10084468Y-14978936D02*
X10074944Y-14988460D01*
X10074944Y-14988460D02*
X10055896Y-14997984D01*
X10055896Y-14997984D02*
X10036848Y-14997984D01*
X10036848Y-14997984D02*
X10017801Y-14988460D01*
X10017801Y-14988460D02*
X10008277Y-14978936D01*
X10008277Y-14978936D02*
X9998753Y-14959888D01*
X9998753Y-14959888D02*
X9989229Y-14921793D01*
X9989229Y-14921793D02*
X9989229Y-14874174D01*
X9989229Y-14874174D02*
X9998753Y-14836079D01*
X9998753Y-14836079D02*
X10008277Y-14817031D01*
X10008277Y-14817031D02*
X10017801Y-14807508D01*
X10017801Y-14807508D02*
X10036848Y-14797984D01*
X10170182Y-14797984D02*
X10293991Y-14797984D01*
X10293991Y-14797984D02*
X10227325Y-14874174D01*
X10227325Y-14874174D02*
X10255896Y-14874174D01*
X10255896Y-14874174D02*
X10274944Y-14883698D01*
X10274944Y-14883698D02*
X10284468Y-14893222D01*
X10284468Y-14893222D02*
X10293991Y-14912269D01*
X10293991Y-14912269D02*
X10293991Y-14959888D01*
X10293991Y-14959888D02*
X10284468Y-14978936D01*
X10284468Y-14978936D02*
X10274944Y-14988460D01*
X10274944Y-14988460D02*
X10255896Y-14997984D01*
X10255896Y-14997984D02*
X10198753Y-14997984D01*
X10198753Y-14997984D02*
X10179706Y-14988460D01*
X10179706Y-14988460D02*
X10170182Y-14978936D01*
X10360658Y-14797984D02*
X10493991Y-14797984D01*
X10493991Y-14797984D02*
X10408277Y-14997984D01*
X10655896Y-14864650D02*
X10655896Y-14997984D01*
X10608277Y-14788460D02*
X10560658Y-14931317D01*
X10560658Y-14931317D02*
X10684468Y-14931317D01*
X10751134Y-14797984D02*
X10751134Y-14836079D01*
X10827325Y-14797984D02*
X10827325Y-14836079D01*
X11122563Y-15074174D02*
X11113039Y-15064650D01*
X11113039Y-15064650D02*
X11093991Y-15036079D01*
X11093991Y-15036079D02*
X11084468Y-15017031D01*
X11084468Y-15017031D02*
X11074944Y-14988460D01*
X11074944Y-14988460D02*
X11065420Y-14940841D01*
X11065420Y-14940841D02*
X11065420Y-14902746D01*
X11065420Y-14902746D02*
X11074944Y-14855127D01*
X11074944Y-14855127D02*
X11084468Y-14826555D01*
X11084468Y-14826555D02*
X11093991Y-14807508D01*
X11093991Y-14807508D02*
X11113039Y-14778936D01*
X11113039Y-14778936D02*
X11122563Y-14769412D01*
X11179706Y-14797984D02*
X11303515Y-14797984D01*
X11303515Y-14797984D02*
X11236848Y-14874174D01*
X11236848Y-14874174D02*
X11265420Y-14874174D01*
X11265420Y-14874174D02*
X11284468Y-14883698D01*
X11284468Y-14883698D02*
X11293991Y-14893222D01*
X11293991Y-14893222D02*
X11303515Y-14912269D01*
X11303515Y-14912269D02*
X11303515Y-14959888D01*
X11303515Y-14959888D02*
X11293991Y-14978936D01*
X11293991Y-14978936D02*
X11284468Y-14988460D01*
X11284468Y-14988460D02*
X11265420Y-14997984D01*
X11265420Y-14997984D02*
X11208277Y-14997984D01*
X11208277Y-14997984D02*
X11189229Y-14988460D01*
X11189229Y-14988460D02*
X11179706Y-14978936D01*
X11484468Y-14797984D02*
X11389229Y-14797984D01*
X11389229Y-14797984D02*
X11379706Y-14893222D01*
X11379706Y-14893222D02*
X11389229Y-14883698D01*
X11389229Y-14883698D02*
X11408277Y-14874174D01*
X11408277Y-14874174D02*
X11455896Y-14874174D01*
X11455896Y-14874174D02*
X11474944Y-14883698D01*
X11474944Y-14883698D02*
X11484468Y-14893222D01*
X11484468Y-14893222D02*
X11493991Y-14912269D01*
X11493991Y-14912269D02*
X11493991Y-14959888D01*
X11493991Y-14959888D02*
X11484468Y-14978936D01*
X11484468Y-14978936D02*
X11474944Y-14988460D01*
X11474944Y-14988460D02*
X11455896Y-14997984D01*
X11455896Y-14997984D02*
X11408277Y-14997984D01*
X11408277Y-14997984D02*
X11389229Y-14988460D01*
X11389229Y-14988460D02*
X11379706Y-14978936D01*
X11732087Y-14997984D02*
X11732087Y-14797984D01*
X11817801Y-14997984D02*
X11817801Y-14893222D01*
X11817801Y-14893222D02*
X11808277Y-14874174D01*
X11808277Y-14874174D02*
X11789230Y-14864650D01*
X11789230Y-14864650D02*
X11760658Y-14864650D01*
X11760658Y-14864650D02*
X11741610Y-14874174D01*
X11741610Y-14874174D02*
X11732087Y-14883698D01*
X11941610Y-14997984D02*
X11922563Y-14988460D01*
X11922563Y-14988460D02*
X11913039Y-14978936D01*
X11913039Y-14978936D02*
X11903515Y-14959888D01*
X11903515Y-14959888D02*
X11903515Y-14902746D01*
X11903515Y-14902746D02*
X11913039Y-14883698D01*
X11913039Y-14883698D02*
X11922563Y-14874174D01*
X11922563Y-14874174D02*
X11941610Y-14864650D01*
X11941610Y-14864650D02*
X11970182Y-14864650D01*
X11970182Y-14864650D02*
X11989230Y-14874174D01*
X11989230Y-14874174D02*
X11998753Y-14883698D01*
X11998753Y-14883698D02*
X12008277Y-14902746D01*
X12008277Y-14902746D02*
X12008277Y-14959888D01*
X12008277Y-14959888D02*
X11998753Y-14978936D01*
X11998753Y-14978936D02*
X11989230Y-14988460D01*
X11989230Y-14988460D02*
X11970182Y-14997984D01*
X11970182Y-14997984D02*
X11941610Y-14997984D01*
X12122563Y-14997984D02*
X12103515Y-14988460D01*
X12103515Y-14988460D02*
X12093991Y-14969412D01*
X12093991Y-14969412D02*
X12093991Y-14797984D01*
X12274944Y-14988460D02*
X12255896Y-14997984D01*
X12255896Y-14997984D02*
X12217801Y-14997984D01*
X12217801Y-14997984D02*
X12198753Y-14988460D01*
X12198753Y-14988460D02*
X12189230Y-14969412D01*
X12189230Y-14969412D02*
X12189230Y-14893222D01*
X12189230Y-14893222D02*
X12198753Y-14874174D01*
X12198753Y-14874174D02*
X12217801Y-14864650D01*
X12217801Y-14864650D02*
X12255896Y-14864650D01*
X12255896Y-14864650D02*
X12274944Y-14874174D01*
X12274944Y-14874174D02*
X12284468Y-14893222D01*
X12284468Y-14893222D02*
X12284468Y-14912269D01*
X12284468Y-14912269D02*
X12189230Y-14931317D01*
X12360658Y-14988460D02*
X12379706Y-14997984D01*
X12379706Y-14997984D02*
X12417801Y-14997984D01*
X12417801Y-14997984D02*
X12436849Y-14988460D01*
X12436849Y-14988460D02*
X12446372Y-14969412D01*
X12446372Y-14969412D02*
X12446372Y-14959888D01*
X12446372Y-14959888D02*
X12436849Y-14940841D01*
X12436849Y-14940841D02*
X12417801Y-14931317D01*
X12417801Y-14931317D02*
X12389230Y-14931317D01*
X12389230Y-14931317D02*
X12370182Y-14921793D01*
X12370182Y-14921793D02*
X12360658Y-14902746D01*
X12360658Y-14902746D02*
X12360658Y-14893222D01*
X12360658Y-14893222D02*
X12370182Y-14874174D01*
X12370182Y-14874174D02*
X12389230Y-14864650D01*
X12389230Y-14864650D02*
X12417801Y-14864650D01*
X12417801Y-14864650D02*
X12436849Y-14874174D01*
X12513039Y-15074174D02*
X12522563Y-15064650D01*
X12522563Y-15064650D02*
X12541611Y-15036079D01*
X12541611Y-15036079D02*
X12551134Y-15017031D01*
X12551134Y-15017031D02*
X12560658Y-14988460D01*
X12560658Y-14988460D02*
X12570182Y-14940841D01*
X12570182Y-14940841D02*
X12570182Y-14902746D01*
X12570182Y-14902746D02*
X12560658Y-14855127D01*
X12560658Y-14855127D02*
X12551134Y-14826555D01*
X12551134Y-14826555D02*
X12541611Y-14807508D01*
X12541611Y-14807508D02*
X12522563Y-14778936D01*
X12522563Y-14778936D02*
X12513039Y-14769412D01*
D12*
X7497500Y-15120500D02*
X7497500Y-15220500D01*
X7447500Y-15170500D02*
X7547500Y-15170500D01*
D11*
X7913039Y-15261984D02*
X7798753Y-15261984D01*
X7855896Y-15261984D02*
X7855896Y-15061984D01*
X7855896Y-15061984D02*
X7836848Y-15090555D01*
X7836848Y-15090555D02*
X7817801Y-15109603D01*
X7817801Y-15109603D02*
X7798753Y-15119127D01*
X7998753Y-15242936D02*
X8008277Y-15252460D01*
X8008277Y-15252460D02*
X7998753Y-15261984D01*
X7998753Y-15261984D02*
X7989229Y-15252460D01*
X7989229Y-15252460D02*
X7998753Y-15242936D01*
X7998753Y-15242936D02*
X7998753Y-15261984D01*
X8132086Y-15061984D02*
X8151134Y-15061984D01*
X8151134Y-15061984D02*
X8170182Y-15071508D01*
X8170182Y-15071508D02*
X8179705Y-15081031D01*
X8179705Y-15081031D02*
X8189229Y-15100079D01*
X8189229Y-15100079D02*
X8198753Y-15138174D01*
X8198753Y-15138174D02*
X8198753Y-15185793D01*
X8198753Y-15185793D02*
X8189229Y-15223888D01*
X8189229Y-15223888D02*
X8179705Y-15242936D01*
X8179705Y-15242936D02*
X8170182Y-15252460D01*
X8170182Y-15252460D02*
X8151134Y-15261984D01*
X8151134Y-15261984D02*
X8132086Y-15261984D01*
X8132086Y-15261984D02*
X8113039Y-15252460D01*
X8113039Y-15252460D02*
X8103515Y-15242936D01*
X8103515Y-15242936D02*
X8093991Y-15223888D01*
X8093991Y-15223888D02*
X8084467Y-15185793D01*
X8084467Y-15185793D02*
X8084467Y-15138174D01*
X8084467Y-15138174D02*
X8093991Y-15100079D01*
X8093991Y-15100079D02*
X8103515Y-15081031D01*
X8103515Y-15081031D02*
X8113039Y-15071508D01*
X8113039Y-15071508D02*
X8132086Y-15061984D01*
X8322562Y-15061984D02*
X8341610Y-15061984D01*
X8341610Y-15061984D02*
X8360658Y-15071508D01*
X8360658Y-15071508D02*
X8370182Y-15081031D01*
X8370182Y-15081031D02*
X8379705Y-15100079D01*
X8379705Y-15100079D02*
X8389229Y-15138174D01*
X8389229Y-15138174D02*
X8389229Y-15185793D01*
X8389229Y-15185793D02*
X8379705Y-15223888D01*
X8379705Y-15223888D02*
X8370182Y-15242936D01*
X8370182Y-15242936D02*
X8360658Y-15252460D01*
X8360658Y-15252460D02*
X8341610Y-15261984D01*
X8341610Y-15261984D02*
X8322562Y-15261984D01*
X8322562Y-15261984D02*
X8303515Y-15252460D01*
X8303515Y-15252460D02*
X8293991Y-15242936D01*
X8293991Y-15242936D02*
X8284467Y-15223888D01*
X8284467Y-15223888D02*
X8274943Y-15185793D01*
X8274943Y-15185793D02*
X8274943Y-15138174D01*
X8274943Y-15138174D02*
X8284467Y-15100079D01*
X8284467Y-15100079D02*
X8293991Y-15081031D01*
X8293991Y-15081031D02*
X8303515Y-15071508D01*
X8303515Y-15071508D02*
X8322562Y-15061984D01*
X8513039Y-15061984D02*
X8532086Y-15061984D01*
X8532086Y-15061984D02*
X8551134Y-15071508D01*
X8551134Y-15071508D02*
X8560658Y-15081031D01*
X8560658Y-15081031D02*
X8570182Y-15100079D01*
X8570182Y-15100079D02*
X8579705Y-15138174D01*
X8579705Y-15138174D02*
X8579705Y-15185793D01*
X8579705Y-15185793D02*
X8570182Y-15223888D01*
X8570182Y-15223888D02*
X8560658Y-15242936D01*
X8560658Y-15242936D02*
X8551134Y-15252460D01*
X8551134Y-15252460D02*
X8532086Y-15261984D01*
X8532086Y-15261984D02*
X8513039Y-15261984D01*
X8513039Y-15261984D02*
X8493991Y-15252460D01*
X8493991Y-15252460D02*
X8484467Y-15242936D01*
X8484467Y-15242936D02*
X8474944Y-15223888D01*
X8474944Y-15223888D02*
X8465420Y-15185793D01*
X8465420Y-15185793D02*
X8465420Y-15138174D01*
X8465420Y-15138174D02*
X8474944Y-15100079D01*
X8474944Y-15100079D02*
X8484467Y-15081031D01*
X8484467Y-15081031D02*
X8493991Y-15071508D01*
X8493991Y-15071508D02*
X8513039Y-15061984D01*
X8665420Y-15261984D02*
X8665420Y-15128650D01*
X8665420Y-15147698D02*
X8674944Y-15138174D01*
X8674944Y-15138174D02*
X8693991Y-15128650D01*
X8693991Y-15128650D02*
X8722563Y-15128650D01*
X8722563Y-15128650D02*
X8741610Y-15138174D01*
X8741610Y-15138174D02*
X8751134Y-15157222D01*
X8751134Y-15157222D02*
X8751134Y-15261984D01*
X8751134Y-15157222D02*
X8760658Y-15138174D01*
X8760658Y-15138174D02*
X8779705Y-15128650D01*
X8779705Y-15128650D02*
X8808277Y-15128650D01*
X8808277Y-15128650D02*
X8827325Y-15138174D01*
X8827325Y-15138174D02*
X8836848Y-15157222D01*
X8836848Y-15157222D02*
X8836848Y-15261984D01*
X8932086Y-15261984D02*
X8932086Y-15128650D01*
X8932086Y-15147698D02*
X8941610Y-15138174D01*
X8941610Y-15138174D02*
X8960658Y-15128650D01*
X8960658Y-15128650D02*
X8989229Y-15128650D01*
X8989229Y-15128650D02*
X9008277Y-15138174D01*
X9008277Y-15138174D02*
X9017801Y-15157222D01*
X9017801Y-15157222D02*
X9017801Y-15261984D01*
X9017801Y-15157222D02*
X9027325Y-15138174D01*
X9027325Y-15138174D02*
X9046372Y-15128650D01*
X9046372Y-15128650D02*
X9074944Y-15128650D01*
X9074944Y-15128650D02*
X9093991Y-15138174D01*
X9093991Y-15138174D02*
X9103515Y-15157222D01*
X9103515Y-15157222D02*
X9103515Y-15261984D01*
X9493991Y-15052460D02*
X9322563Y-15309603D01*
X9751134Y-15061984D02*
X9770182Y-15061984D01*
X9770182Y-15061984D02*
X9789229Y-15071508D01*
X9789229Y-15071508D02*
X9798753Y-15081031D01*
X9798753Y-15081031D02*
X9808277Y-15100079D01*
X9808277Y-15100079D02*
X9817801Y-15138174D01*
X9817801Y-15138174D02*
X9817801Y-15185793D01*
X9817801Y-15185793D02*
X9808277Y-15223888D01*
X9808277Y-15223888D02*
X9798753Y-15242936D01*
X9798753Y-15242936D02*
X9789229Y-15252460D01*
X9789229Y-15252460D02*
X9770182Y-15261984D01*
X9770182Y-15261984D02*
X9751134Y-15261984D01*
X9751134Y-15261984D02*
X9732087Y-15252460D01*
X9732087Y-15252460D02*
X9722563Y-15242936D01*
X9722563Y-15242936D02*
X9713039Y-15223888D01*
X9713039Y-15223888D02*
X9703515Y-15185793D01*
X9703515Y-15185793D02*
X9703515Y-15138174D01*
X9703515Y-15138174D02*
X9713039Y-15100079D01*
X9713039Y-15100079D02*
X9722563Y-15081031D01*
X9722563Y-15081031D02*
X9732087Y-15071508D01*
X9732087Y-15071508D02*
X9751134Y-15061984D01*
X9903515Y-15242936D02*
X9913039Y-15252460D01*
X9913039Y-15252460D02*
X9903515Y-15261984D01*
X9903515Y-15261984D02*
X9893991Y-15252460D01*
X9893991Y-15252460D02*
X9903515Y-15242936D01*
X9903515Y-15242936D02*
X9903515Y-15261984D01*
X10036848Y-15061984D02*
X10055896Y-15061984D01*
X10055896Y-15061984D02*
X10074944Y-15071508D01*
X10074944Y-15071508D02*
X10084468Y-15081031D01*
X10084468Y-15081031D02*
X10093991Y-15100079D01*
X10093991Y-15100079D02*
X10103515Y-15138174D01*
X10103515Y-15138174D02*
X10103515Y-15185793D01*
X10103515Y-15185793D02*
X10093991Y-15223888D01*
X10093991Y-15223888D02*
X10084468Y-15242936D01*
X10084468Y-15242936D02*
X10074944Y-15252460D01*
X10074944Y-15252460D02*
X10055896Y-15261984D01*
X10055896Y-15261984D02*
X10036848Y-15261984D01*
X10036848Y-15261984D02*
X10017801Y-15252460D01*
X10017801Y-15252460D02*
X10008277Y-15242936D01*
X10008277Y-15242936D02*
X9998753Y-15223888D01*
X9998753Y-15223888D02*
X9989229Y-15185793D01*
X9989229Y-15185793D02*
X9989229Y-15138174D01*
X9989229Y-15138174D02*
X9998753Y-15100079D01*
X9998753Y-15100079D02*
X10008277Y-15081031D01*
X10008277Y-15081031D02*
X10017801Y-15071508D01*
X10017801Y-15071508D02*
X10036848Y-15061984D01*
X10170182Y-15061984D02*
X10293991Y-15061984D01*
X10293991Y-15061984D02*
X10227325Y-15138174D01*
X10227325Y-15138174D02*
X10255896Y-15138174D01*
X10255896Y-15138174D02*
X10274944Y-15147698D01*
X10274944Y-15147698D02*
X10284468Y-15157222D01*
X10284468Y-15157222D02*
X10293991Y-15176269D01*
X10293991Y-15176269D02*
X10293991Y-15223888D01*
X10293991Y-15223888D02*
X10284468Y-15242936D01*
X10284468Y-15242936D02*
X10274944Y-15252460D01*
X10274944Y-15252460D02*
X10255896Y-15261984D01*
X10255896Y-15261984D02*
X10198753Y-15261984D01*
X10198753Y-15261984D02*
X10179706Y-15252460D01*
X10179706Y-15252460D02*
X10170182Y-15242936D01*
X10389229Y-15261984D02*
X10427325Y-15261984D01*
X10427325Y-15261984D02*
X10446372Y-15252460D01*
X10446372Y-15252460D02*
X10455896Y-15242936D01*
X10455896Y-15242936D02*
X10474944Y-15214365D01*
X10474944Y-15214365D02*
X10484468Y-15176269D01*
X10484468Y-15176269D02*
X10484468Y-15100079D01*
X10484468Y-15100079D02*
X10474944Y-15081031D01*
X10474944Y-15081031D02*
X10465420Y-15071508D01*
X10465420Y-15071508D02*
X10446372Y-15061984D01*
X10446372Y-15061984D02*
X10408277Y-15061984D01*
X10408277Y-15061984D02*
X10389229Y-15071508D01*
X10389229Y-15071508D02*
X10379706Y-15081031D01*
X10379706Y-15081031D02*
X10370182Y-15100079D01*
X10370182Y-15100079D02*
X10370182Y-15147698D01*
X10370182Y-15147698D02*
X10379706Y-15166746D01*
X10379706Y-15166746D02*
X10389229Y-15176269D01*
X10389229Y-15176269D02*
X10408277Y-15185793D01*
X10408277Y-15185793D02*
X10446372Y-15185793D01*
X10446372Y-15185793D02*
X10465420Y-15176269D01*
X10465420Y-15176269D02*
X10474944Y-15166746D01*
X10474944Y-15166746D02*
X10484468Y-15147698D01*
X10655896Y-15128650D02*
X10655896Y-15261984D01*
X10608277Y-15052460D02*
X10560658Y-15195317D01*
X10560658Y-15195317D02*
X10684468Y-15195317D01*
X10751134Y-15061984D02*
X10751134Y-15100079D01*
X10827325Y-15061984D02*
X10827325Y-15100079D01*
X11122563Y-15338174D02*
X11113039Y-15328650D01*
X11113039Y-15328650D02*
X11093991Y-15300079D01*
X11093991Y-15300079D02*
X11084468Y-15281031D01*
X11084468Y-15281031D02*
X11074944Y-15252460D01*
X11074944Y-15252460D02*
X11065420Y-15204841D01*
X11065420Y-15204841D02*
X11065420Y-15166746D01*
X11065420Y-15166746D02*
X11074944Y-15119127D01*
X11074944Y-15119127D02*
X11084468Y-15090555D01*
X11084468Y-15090555D02*
X11093991Y-15071508D01*
X11093991Y-15071508D02*
X11113039Y-15042936D01*
X11113039Y-15042936D02*
X11122563Y-15033412D01*
X11284468Y-15128650D02*
X11284468Y-15261984D01*
X11236848Y-15052460D02*
X11189229Y-15195317D01*
X11189229Y-15195317D02*
X11313039Y-15195317D01*
X11474944Y-15061984D02*
X11436848Y-15061984D01*
X11436848Y-15061984D02*
X11417801Y-15071508D01*
X11417801Y-15071508D02*
X11408277Y-15081031D01*
X11408277Y-15081031D02*
X11389229Y-15109603D01*
X11389229Y-15109603D02*
X11379706Y-15147698D01*
X11379706Y-15147698D02*
X11379706Y-15223888D01*
X11379706Y-15223888D02*
X11389229Y-15242936D01*
X11389229Y-15242936D02*
X11398753Y-15252460D01*
X11398753Y-15252460D02*
X11417801Y-15261984D01*
X11417801Y-15261984D02*
X11455896Y-15261984D01*
X11455896Y-15261984D02*
X11474944Y-15252460D01*
X11474944Y-15252460D02*
X11484468Y-15242936D01*
X11484468Y-15242936D02*
X11493991Y-15223888D01*
X11493991Y-15223888D02*
X11493991Y-15176269D01*
X11493991Y-15176269D02*
X11484468Y-15157222D01*
X11484468Y-15157222D02*
X11474944Y-15147698D01*
X11474944Y-15147698D02*
X11455896Y-15138174D01*
X11455896Y-15138174D02*
X11417801Y-15138174D01*
X11417801Y-15138174D02*
X11398753Y-15147698D01*
X11398753Y-15147698D02*
X11389229Y-15157222D01*
X11389229Y-15157222D02*
X11379706Y-15176269D01*
X11732087Y-15261984D02*
X11732087Y-15061984D01*
X11817801Y-15261984D02*
X11817801Y-15157222D01*
X11817801Y-15157222D02*
X11808277Y-15138174D01*
X11808277Y-15138174D02*
X11789230Y-15128650D01*
X11789230Y-15128650D02*
X11760658Y-15128650D01*
X11760658Y-15128650D02*
X11741610Y-15138174D01*
X11741610Y-15138174D02*
X11732087Y-15147698D01*
X11941610Y-15261984D02*
X11922563Y-15252460D01*
X11922563Y-15252460D02*
X11913039Y-15242936D01*
X11913039Y-15242936D02*
X11903515Y-15223888D01*
X11903515Y-15223888D02*
X11903515Y-15166746D01*
X11903515Y-15166746D02*
X11913039Y-15147698D01*
X11913039Y-15147698D02*
X11922563Y-15138174D01*
X11922563Y-15138174D02*
X11941610Y-15128650D01*
X11941610Y-15128650D02*
X11970182Y-15128650D01*
X11970182Y-15128650D02*
X11989230Y-15138174D01*
X11989230Y-15138174D02*
X11998753Y-15147698D01*
X11998753Y-15147698D02*
X12008277Y-15166746D01*
X12008277Y-15166746D02*
X12008277Y-15223888D01*
X12008277Y-15223888D02*
X11998753Y-15242936D01*
X11998753Y-15242936D02*
X11989230Y-15252460D01*
X11989230Y-15252460D02*
X11970182Y-15261984D01*
X11970182Y-15261984D02*
X11941610Y-15261984D01*
X12122563Y-15261984D02*
X12103515Y-15252460D01*
X12103515Y-15252460D02*
X12093991Y-15233412D01*
X12093991Y-15233412D02*
X12093991Y-15061984D01*
X12274944Y-15252460D02*
X12255896Y-15261984D01*
X12255896Y-15261984D02*
X12217801Y-15261984D01*
X12217801Y-15261984D02*
X12198753Y-15252460D01*
X12198753Y-15252460D02*
X12189230Y-15233412D01*
X12189230Y-15233412D02*
X12189230Y-15157222D01*
X12189230Y-15157222D02*
X12198753Y-15138174D01*
X12198753Y-15138174D02*
X12217801Y-15128650D01*
X12217801Y-15128650D02*
X12255896Y-15128650D01*
X12255896Y-15128650D02*
X12274944Y-15138174D01*
X12274944Y-15138174D02*
X12284468Y-15157222D01*
X12284468Y-15157222D02*
X12284468Y-15176269D01*
X12284468Y-15176269D02*
X12189230Y-15195317D01*
X12360658Y-15252460D02*
X12379706Y-15261984D01*
X12379706Y-15261984D02*
X12417801Y-15261984D01*
X12417801Y-15261984D02*
X12436849Y-15252460D01*
X12436849Y-15252460D02*
X12446372Y-15233412D01*
X12446372Y-15233412D02*
X12446372Y-15223888D01*
X12446372Y-15223888D02*
X12436849Y-15204841D01*
X12436849Y-15204841D02*
X12417801Y-15195317D01*
X12417801Y-15195317D02*
X12389230Y-15195317D01*
X12389230Y-15195317D02*
X12370182Y-15185793D01*
X12370182Y-15185793D02*
X12360658Y-15166746D01*
X12360658Y-15166746D02*
X12360658Y-15157222D01*
X12360658Y-15157222D02*
X12370182Y-15138174D01*
X12370182Y-15138174D02*
X12389230Y-15128650D01*
X12389230Y-15128650D02*
X12417801Y-15128650D01*
X12417801Y-15128650D02*
X12436849Y-15138174D01*
X12513039Y-15338174D02*
X12522563Y-15328650D01*
X12522563Y-15328650D02*
X12541611Y-15300079D01*
X12541611Y-15300079D02*
X12551134Y-15281031D01*
X12551134Y-15281031D02*
X12560658Y-15252460D01*
X12560658Y-15252460D02*
X12570182Y-15204841D01*
X12570182Y-15204841D02*
X12570182Y-15166746D01*
X12570182Y-15166746D02*
X12560658Y-15119127D01*
X12560658Y-15119127D02*
X12551134Y-15090555D01*
X12551134Y-15090555D02*
X12541611Y-15071508D01*
X12541611Y-15071508D02*
X12522563Y-15042936D01*
X12522563Y-15042936D02*
X12513039Y-15033412D01*
D13*
X7526998Y-15483998D02*
X7526998Y-15385002D01*
X7428002Y-15385002D01*
X7428002Y-15483998D01*
X7526998Y-15483998D01*
D11*
X7913039Y-15525984D02*
X7798753Y-15525984D01*
X7855896Y-15525984D02*
X7855896Y-15325984D01*
X7855896Y-15325984D02*
X7836848Y-15354555D01*
X7836848Y-15354555D02*
X7817801Y-15373603D01*
X7817801Y-15373603D02*
X7798753Y-15383127D01*
X7998753Y-15506936D02*
X8008277Y-15516460D01*
X8008277Y-15516460D02*
X7998753Y-15525984D01*
X7998753Y-15525984D02*
X7989229Y-15516460D01*
X7989229Y-15516460D02*
X7998753Y-15506936D01*
X7998753Y-15506936D02*
X7998753Y-15525984D01*
X8179705Y-15392650D02*
X8179705Y-15525984D01*
X8132086Y-15316460D02*
X8084467Y-15459317D01*
X8084467Y-15459317D02*
X8208277Y-15459317D01*
X8322562Y-15325984D02*
X8341610Y-15325984D01*
X8341610Y-15325984D02*
X8360658Y-15335508D01*
X8360658Y-15335508D02*
X8370182Y-15345031D01*
X8370182Y-15345031D02*
X8379705Y-15364079D01*
X8379705Y-15364079D02*
X8389229Y-15402174D01*
X8389229Y-15402174D02*
X8389229Y-15449793D01*
X8389229Y-15449793D02*
X8379705Y-15487888D01*
X8379705Y-15487888D02*
X8370182Y-15506936D01*
X8370182Y-15506936D02*
X8360658Y-15516460D01*
X8360658Y-15516460D02*
X8341610Y-15525984D01*
X8341610Y-15525984D02*
X8322562Y-15525984D01*
X8322562Y-15525984D02*
X8303515Y-15516460D01*
X8303515Y-15516460D02*
X8293991Y-15506936D01*
X8293991Y-15506936D02*
X8284467Y-15487888D01*
X8284467Y-15487888D02*
X8274943Y-15449793D01*
X8274943Y-15449793D02*
X8274943Y-15402174D01*
X8274943Y-15402174D02*
X8284467Y-15364079D01*
X8284467Y-15364079D02*
X8293991Y-15345031D01*
X8293991Y-15345031D02*
X8303515Y-15335508D01*
X8303515Y-15335508D02*
X8322562Y-15325984D01*
X8513039Y-15325984D02*
X8532086Y-15325984D01*
X8532086Y-15325984D02*
X8551134Y-15335508D01*
X8551134Y-15335508D02*
X8560658Y-15345031D01*
X8560658Y-15345031D02*
X8570182Y-15364079D01*
X8570182Y-15364079D02*
X8579705Y-15402174D01*
X8579705Y-15402174D02*
X8579705Y-15449793D01*
X8579705Y-15449793D02*
X8570182Y-15487888D01*
X8570182Y-15487888D02*
X8560658Y-15506936D01*
X8560658Y-15506936D02*
X8551134Y-15516460D01*
X8551134Y-15516460D02*
X8532086Y-15525984D01*
X8532086Y-15525984D02*
X8513039Y-15525984D01*
X8513039Y-15525984D02*
X8493991Y-15516460D01*
X8493991Y-15516460D02*
X8484467Y-15506936D01*
X8484467Y-15506936D02*
X8474944Y-15487888D01*
X8474944Y-15487888D02*
X8465420Y-15449793D01*
X8465420Y-15449793D02*
X8465420Y-15402174D01*
X8465420Y-15402174D02*
X8474944Y-15364079D01*
X8474944Y-15364079D02*
X8484467Y-15345031D01*
X8484467Y-15345031D02*
X8493991Y-15335508D01*
X8493991Y-15335508D02*
X8513039Y-15325984D01*
X8665420Y-15525984D02*
X8665420Y-15392650D01*
X8665420Y-15411698D02*
X8674944Y-15402174D01*
X8674944Y-15402174D02*
X8693991Y-15392650D01*
X8693991Y-15392650D02*
X8722563Y-15392650D01*
X8722563Y-15392650D02*
X8741610Y-15402174D01*
X8741610Y-15402174D02*
X8751134Y-15421222D01*
X8751134Y-15421222D02*
X8751134Y-15525984D01*
X8751134Y-15421222D02*
X8760658Y-15402174D01*
X8760658Y-15402174D02*
X8779705Y-15392650D01*
X8779705Y-15392650D02*
X8808277Y-15392650D01*
X8808277Y-15392650D02*
X8827325Y-15402174D01*
X8827325Y-15402174D02*
X8836848Y-15421222D01*
X8836848Y-15421222D02*
X8836848Y-15525984D01*
X8932086Y-15525984D02*
X8932086Y-15392650D01*
X8932086Y-15411698D02*
X8941610Y-15402174D01*
X8941610Y-15402174D02*
X8960658Y-15392650D01*
X8960658Y-15392650D02*
X8989229Y-15392650D01*
X8989229Y-15392650D02*
X9008277Y-15402174D01*
X9008277Y-15402174D02*
X9017801Y-15421222D01*
X9017801Y-15421222D02*
X9017801Y-15525984D01*
X9017801Y-15421222D02*
X9027325Y-15402174D01*
X9027325Y-15402174D02*
X9046372Y-15392650D01*
X9046372Y-15392650D02*
X9074944Y-15392650D01*
X9074944Y-15392650D02*
X9093991Y-15402174D01*
X9093991Y-15402174D02*
X9103515Y-15421222D01*
X9103515Y-15421222D02*
X9103515Y-15525984D01*
X9493991Y-15316460D02*
X9322563Y-15573603D01*
X9751134Y-15325984D02*
X9770182Y-15325984D01*
X9770182Y-15325984D02*
X9789229Y-15335508D01*
X9789229Y-15335508D02*
X9798753Y-15345031D01*
X9798753Y-15345031D02*
X9808277Y-15364079D01*
X9808277Y-15364079D02*
X9817801Y-15402174D01*
X9817801Y-15402174D02*
X9817801Y-15449793D01*
X9817801Y-15449793D02*
X9808277Y-15487888D01*
X9808277Y-15487888D02*
X9798753Y-15506936D01*
X9798753Y-15506936D02*
X9789229Y-15516460D01*
X9789229Y-15516460D02*
X9770182Y-15525984D01*
X9770182Y-15525984D02*
X9751134Y-15525984D01*
X9751134Y-15525984D02*
X9732087Y-15516460D01*
X9732087Y-15516460D02*
X9722563Y-15506936D01*
X9722563Y-15506936D02*
X9713039Y-15487888D01*
X9713039Y-15487888D02*
X9703515Y-15449793D01*
X9703515Y-15449793D02*
X9703515Y-15402174D01*
X9703515Y-15402174D02*
X9713039Y-15364079D01*
X9713039Y-15364079D02*
X9722563Y-15345031D01*
X9722563Y-15345031D02*
X9732087Y-15335508D01*
X9732087Y-15335508D02*
X9751134Y-15325984D01*
X9903515Y-15506936D02*
X9913039Y-15516460D01*
X9913039Y-15516460D02*
X9903515Y-15525984D01*
X9903515Y-15525984D02*
X9893991Y-15516460D01*
X9893991Y-15516460D02*
X9903515Y-15506936D01*
X9903515Y-15506936D02*
X9903515Y-15525984D01*
X10036848Y-15325984D02*
X10055896Y-15325984D01*
X10055896Y-15325984D02*
X10074944Y-15335508D01*
X10074944Y-15335508D02*
X10084468Y-15345031D01*
X10084468Y-15345031D02*
X10093991Y-15364079D01*
X10093991Y-15364079D02*
X10103515Y-15402174D01*
X10103515Y-15402174D02*
X10103515Y-15449793D01*
X10103515Y-15449793D02*
X10093991Y-15487888D01*
X10093991Y-15487888D02*
X10084468Y-15506936D01*
X10084468Y-15506936D02*
X10074944Y-15516460D01*
X10074944Y-15516460D02*
X10055896Y-15525984D01*
X10055896Y-15525984D02*
X10036848Y-15525984D01*
X10036848Y-15525984D02*
X10017801Y-15516460D01*
X10017801Y-15516460D02*
X10008277Y-15506936D01*
X10008277Y-15506936D02*
X9998753Y-15487888D01*
X9998753Y-15487888D02*
X9989229Y-15449793D01*
X9989229Y-15449793D02*
X9989229Y-15402174D01*
X9989229Y-15402174D02*
X9998753Y-15364079D01*
X9998753Y-15364079D02*
X10008277Y-15345031D01*
X10008277Y-15345031D02*
X10017801Y-15335508D01*
X10017801Y-15335508D02*
X10036848Y-15325984D01*
X10284468Y-15325984D02*
X10189229Y-15325984D01*
X10189229Y-15325984D02*
X10179706Y-15421222D01*
X10179706Y-15421222D02*
X10189229Y-15411698D01*
X10189229Y-15411698D02*
X10208277Y-15402174D01*
X10208277Y-15402174D02*
X10255896Y-15402174D01*
X10255896Y-15402174D02*
X10274944Y-15411698D01*
X10274944Y-15411698D02*
X10284468Y-15421222D01*
X10284468Y-15421222D02*
X10293991Y-15440269D01*
X10293991Y-15440269D02*
X10293991Y-15487888D01*
X10293991Y-15487888D02*
X10284468Y-15506936D01*
X10284468Y-15506936D02*
X10274944Y-15516460D01*
X10274944Y-15516460D02*
X10255896Y-15525984D01*
X10255896Y-15525984D02*
X10208277Y-15525984D01*
X10208277Y-15525984D02*
X10189229Y-15516460D01*
X10189229Y-15516460D02*
X10179706Y-15506936D01*
X10474944Y-15325984D02*
X10379706Y-15325984D01*
X10379706Y-15325984D02*
X10370182Y-15421222D01*
X10370182Y-15421222D02*
X10379706Y-15411698D01*
X10379706Y-15411698D02*
X10398753Y-15402174D01*
X10398753Y-15402174D02*
X10446372Y-15402174D01*
X10446372Y-15402174D02*
X10465420Y-15411698D01*
X10465420Y-15411698D02*
X10474944Y-15421222D01*
X10474944Y-15421222D02*
X10484468Y-15440269D01*
X10484468Y-15440269D02*
X10484468Y-15487888D01*
X10484468Y-15487888D02*
X10474944Y-15506936D01*
X10474944Y-15506936D02*
X10465420Y-15516460D01*
X10465420Y-15516460D02*
X10446372Y-15525984D01*
X10446372Y-15525984D02*
X10398753Y-15525984D01*
X10398753Y-15525984D02*
X10379706Y-15516460D01*
X10379706Y-15516460D02*
X10370182Y-15506936D01*
X10674944Y-15525984D02*
X10560658Y-15525984D01*
X10617801Y-15525984D02*
X10617801Y-15325984D01*
X10617801Y-15325984D02*
X10598753Y-15354555D01*
X10598753Y-15354555D02*
X10579706Y-15373603D01*
X10579706Y-15373603D02*
X10560658Y-15383127D01*
X10751134Y-15325984D02*
X10751134Y-15364079D01*
X10827325Y-15325984D02*
X10827325Y-15364079D01*
X11122563Y-15602174D02*
X11113039Y-15592650D01*
X11113039Y-15592650D02*
X11093991Y-15564079D01*
X11093991Y-15564079D02*
X11084468Y-15545031D01*
X11084468Y-15545031D02*
X11074944Y-15516460D01*
X11074944Y-15516460D02*
X11065420Y-15468841D01*
X11065420Y-15468841D02*
X11065420Y-15430746D01*
X11065420Y-15430746D02*
X11074944Y-15383127D01*
X11074944Y-15383127D02*
X11084468Y-15354555D01*
X11084468Y-15354555D02*
X11093991Y-15335508D01*
X11093991Y-15335508D02*
X11113039Y-15306936D01*
X11113039Y-15306936D02*
X11122563Y-15297412D01*
X11189229Y-15345031D02*
X11198753Y-15335508D01*
X11198753Y-15335508D02*
X11217801Y-15325984D01*
X11217801Y-15325984D02*
X11265420Y-15325984D01*
X11265420Y-15325984D02*
X11284468Y-15335508D01*
X11284468Y-15335508D02*
X11293991Y-15345031D01*
X11293991Y-15345031D02*
X11303515Y-15364079D01*
X11303515Y-15364079D02*
X11303515Y-15383127D01*
X11303515Y-15383127D02*
X11293991Y-15411698D01*
X11293991Y-15411698D02*
X11179706Y-15525984D01*
X11179706Y-15525984D02*
X11303515Y-15525984D01*
X11541610Y-15525984D02*
X11541610Y-15325984D01*
X11627325Y-15525984D02*
X11627325Y-15421222D01*
X11627325Y-15421222D02*
X11617801Y-15402174D01*
X11617801Y-15402174D02*
X11598753Y-15392650D01*
X11598753Y-15392650D02*
X11570182Y-15392650D01*
X11570182Y-15392650D02*
X11551134Y-15402174D01*
X11551134Y-15402174D02*
X11541610Y-15411698D01*
X11751134Y-15525984D02*
X11732087Y-15516460D01*
X11732087Y-15516460D02*
X11722563Y-15506936D01*
X11722563Y-15506936D02*
X11713039Y-15487888D01*
X11713039Y-15487888D02*
X11713039Y-15430746D01*
X11713039Y-15430746D02*
X11722563Y-15411698D01*
X11722563Y-15411698D02*
X11732087Y-15402174D01*
X11732087Y-15402174D02*
X11751134Y-15392650D01*
X11751134Y-15392650D02*
X11779706Y-15392650D01*
X11779706Y-15392650D02*
X11798753Y-15402174D01*
X11798753Y-15402174D02*
X11808277Y-15411698D01*
X11808277Y-15411698D02*
X11817801Y-15430746D01*
X11817801Y-15430746D02*
X11817801Y-15487888D01*
X11817801Y-15487888D02*
X11808277Y-15506936D01*
X11808277Y-15506936D02*
X11798753Y-15516460D01*
X11798753Y-15516460D02*
X11779706Y-15525984D01*
X11779706Y-15525984D02*
X11751134Y-15525984D01*
X11932087Y-15525984D02*
X11913039Y-15516460D01*
X11913039Y-15516460D02*
X11903515Y-15497412D01*
X11903515Y-15497412D02*
X11903515Y-15325984D01*
X12084468Y-15516460D02*
X12065420Y-15525984D01*
X12065420Y-15525984D02*
X12027325Y-15525984D01*
X12027325Y-15525984D02*
X12008277Y-15516460D01*
X12008277Y-15516460D02*
X11998753Y-15497412D01*
X11998753Y-15497412D02*
X11998753Y-15421222D01*
X11998753Y-15421222D02*
X12008277Y-15402174D01*
X12008277Y-15402174D02*
X12027325Y-15392650D01*
X12027325Y-15392650D02*
X12065420Y-15392650D01*
X12065420Y-15392650D02*
X12084468Y-15402174D01*
X12084468Y-15402174D02*
X12093991Y-15421222D01*
X12093991Y-15421222D02*
X12093991Y-15440269D01*
X12093991Y-15440269D02*
X11998753Y-15459317D01*
X12170182Y-15516460D02*
X12189230Y-15525984D01*
X12189230Y-15525984D02*
X12227325Y-15525984D01*
X12227325Y-15525984D02*
X12246372Y-15516460D01*
X12246372Y-15516460D02*
X12255896Y-15497412D01*
X12255896Y-15497412D02*
X12255896Y-15487888D01*
X12255896Y-15487888D02*
X12246372Y-15468841D01*
X12246372Y-15468841D02*
X12227325Y-15459317D01*
X12227325Y-15459317D02*
X12198753Y-15459317D01*
X12198753Y-15459317D02*
X12179706Y-15449793D01*
X12179706Y-15449793D02*
X12170182Y-15430746D01*
X12170182Y-15430746D02*
X12170182Y-15421222D01*
X12170182Y-15421222D02*
X12179706Y-15402174D01*
X12179706Y-15402174D02*
X12198753Y-15392650D01*
X12198753Y-15392650D02*
X12227325Y-15392650D01*
X12227325Y-15392650D02*
X12246372Y-15402174D01*
X12322563Y-15602174D02*
X12332087Y-15592650D01*
X12332087Y-15592650D02*
X12351134Y-15564079D01*
X12351134Y-15564079D02*
X12360658Y-15545031D01*
X12360658Y-15545031D02*
X12370182Y-15516460D01*
X12370182Y-15516460D02*
X12379706Y-15468841D01*
X12379706Y-15468841D02*
X12379706Y-15430746D01*
X12379706Y-15430746D02*
X12370182Y-15383127D01*
X12370182Y-15383127D02*
X12360658Y-15354555D01*
X12360658Y-15354555D02*
X12351134Y-15335508D01*
X12351134Y-15335508D02*
X12332087Y-15306936D01*
X12332087Y-15306936D02*
X12322563Y-15297412D01*
X7447500Y-15798500D02*
X7547500Y-15698500D01*
X7447500Y-15598500D01*
X7347500Y-15698500D01*
X7447500Y-15798500D01*
X7789229Y-15589984D02*
X7913039Y-15589984D01*
X7913039Y-15589984D02*
X7846372Y-15666174D01*
X7846372Y-15666174D02*
X7874943Y-15666174D01*
X7874943Y-15666174D02*
X7893991Y-15675698D01*
X7893991Y-15675698D02*
X7903515Y-15685222D01*
X7903515Y-15685222D02*
X7913039Y-15704269D01*
X7913039Y-15704269D02*
X7913039Y-15751888D01*
X7913039Y-15751888D02*
X7903515Y-15770936D01*
X7903515Y-15770936D02*
X7893991Y-15780460D01*
X7893991Y-15780460D02*
X7874943Y-15789984D01*
X7874943Y-15789984D02*
X7817801Y-15789984D01*
X7817801Y-15789984D02*
X7798753Y-15780460D01*
X7798753Y-15780460D02*
X7789229Y-15770936D01*
X7998753Y-15770936D02*
X8008277Y-15780460D01*
X8008277Y-15780460D02*
X7998753Y-15789984D01*
X7998753Y-15789984D02*
X7989229Y-15780460D01*
X7989229Y-15780460D02*
X7998753Y-15770936D01*
X7998753Y-15770936D02*
X7998753Y-15789984D01*
X8084467Y-15609031D02*
X8093991Y-15599508D01*
X8093991Y-15599508D02*
X8113039Y-15589984D01*
X8113039Y-15589984D02*
X8160658Y-15589984D01*
X8160658Y-15589984D02*
X8179705Y-15599508D01*
X8179705Y-15599508D02*
X8189229Y-15609031D01*
X8189229Y-15609031D02*
X8198753Y-15628079D01*
X8198753Y-15628079D02*
X8198753Y-15647127D01*
X8198753Y-15647127D02*
X8189229Y-15675698D01*
X8189229Y-15675698D02*
X8074943Y-15789984D01*
X8074943Y-15789984D02*
X8198753Y-15789984D01*
X8322562Y-15589984D02*
X8341610Y-15589984D01*
X8341610Y-15589984D02*
X8360658Y-15599508D01*
X8360658Y-15599508D02*
X8370182Y-15609031D01*
X8370182Y-15609031D02*
X8379705Y-15628079D01*
X8379705Y-15628079D02*
X8389229Y-15666174D01*
X8389229Y-15666174D02*
X8389229Y-15713793D01*
X8389229Y-15713793D02*
X8379705Y-15751888D01*
X8379705Y-15751888D02*
X8370182Y-15770936D01*
X8370182Y-15770936D02*
X8360658Y-15780460D01*
X8360658Y-15780460D02*
X8341610Y-15789984D01*
X8341610Y-15789984D02*
X8322562Y-15789984D01*
X8322562Y-15789984D02*
X8303515Y-15780460D01*
X8303515Y-15780460D02*
X8293991Y-15770936D01*
X8293991Y-15770936D02*
X8284467Y-15751888D01*
X8284467Y-15751888D02*
X8274943Y-15713793D01*
X8274943Y-15713793D02*
X8274943Y-15666174D01*
X8274943Y-15666174D02*
X8284467Y-15628079D01*
X8284467Y-15628079D02*
X8293991Y-15609031D01*
X8293991Y-15609031D02*
X8303515Y-15599508D01*
X8303515Y-15599508D02*
X8322562Y-15589984D01*
X8513039Y-15589984D02*
X8532086Y-15589984D01*
X8532086Y-15589984D02*
X8551134Y-15599508D01*
X8551134Y-15599508D02*
X8560658Y-15609031D01*
X8560658Y-15609031D02*
X8570182Y-15628079D01*
X8570182Y-15628079D02*
X8579705Y-15666174D01*
X8579705Y-15666174D02*
X8579705Y-15713793D01*
X8579705Y-15713793D02*
X8570182Y-15751888D01*
X8570182Y-15751888D02*
X8560658Y-15770936D01*
X8560658Y-15770936D02*
X8551134Y-15780460D01*
X8551134Y-15780460D02*
X8532086Y-15789984D01*
X8532086Y-15789984D02*
X8513039Y-15789984D01*
X8513039Y-15789984D02*
X8493991Y-15780460D01*
X8493991Y-15780460D02*
X8484467Y-15770936D01*
X8484467Y-15770936D02*
X8474944Y-15751888D01*
X8474944Y-15751888D02*
X8465420Y-15713793D01*
X8465420Y-15713793D02*
X8465420Y-15666174D01*
X8465420Y-15666174D02*
X8474944Y-15628079D01*
X8474944Y-15628079D02*
X8484467Y-15609031D01*
X8484467Y-15609031D02*
X8493991Y-15599508D01*
X8493991Y-15599508D02*
X8513039Y-15589984D01*
X8665420Y-15789984D02*
X8665420Y-15656650D01*
X8665420Y-15675698D02*
X8674944Y-15666174D01*
X8674944Y-15666174D02*
X8693991Y-15656650D01*
X8693991Y-15656650D02*
X8722563Y-15656650D01*
X8722563Y-15656650D02*
X8741610Y-15666174D01*
X8741610Y-15666174D02*
X8751134Y-15685222D01*
X8751134Y-15685222D02*
X8751134Y-15789984D01*
X8751134Y-15685222D02*
X8760658Y-15666174D01*
X8760658Y-15666174D02*
X8779705Y-15656650D01*
X8779705Y-15656650D02*
X8808277Y-15656650D01*
X8808277Y-15656650D02*
X8827325Y-15666174D01*
X8827325Y-15666174D02*
X8836848Y-15685222D01*
X8836848Y-15685222D02*
X8836848Y-15789984D01*
X8932086Y-15789984D02*
X8932086Y-15656650D01*
X8932086Y-15675698D02*
X8941610Y-15666174D01*
X8941610Y-15666174D02*
X8960658Y-15656650D01*
X8960658Y-15656650D02*
X8989229Y-15656650D01*
X8989229Y-15656650D02*
X9008277Y-15666174D01*
X9008277Y-15666174D02*
X9017801Y-15685222D01*
X9017801Y-15685222D02*
X9017801Y-15789984D01*
X9017801Y-15685222D02*
X9027325Y-15666174D01*
X9027325Y-15666174D02*
X9046372Y-15656650D01*
X9046372Y-15656650D02*
X9074944Y-15656650D01*
X9074944Y-15656650D02*
X9093991Y-15666174D01*
X9093991Y-15666174D02*
X9103515Y-15685222D01*
X9103515Y-15685222D02*
X9103515Y-15789984D01*
X9493991Y-15580460D02*
X9322563Y-15837603D01*
X9751134Y-15589984D02*
X9770182Y-15589984D01*
X9770182Y-15589984D02*
X9789229Y-15599508D01*
X9789229Y-15599508D02*
X9798753Y-15609031D01*
X9798753Y-15609031D02*
X9808277Y-15628079D01*
X9808277Y-15628079D02*
X9817801Y-15666174D01*
X9817801Y-15666174D02*
X9817801Y-15713793D01*
X9817801Y-15713793D02*
X9808277Y-15751888D01*
X9808277Y-15751888D02*
X9798753Y-15770936D01*
X9798753Y-15770936D02*
X9789229Y-15780460D01*
X9789229Y-15780460D02*
X9770182Y-15789984D01*
X9770182Y-15789984D02*
X9751134Y-15789984D01*
X9751134Y-15789984D02*
X9732087Y-15780460D01*
X9732087Y-15780460D02*
X9722563Y-15770936D01*
X9722563Y-15770936D02*
X9713039Y-15751888D01*
X9713039Y-15751888D02*
X9703515Y-15713793D01*
X9703515Y-15713793D02*
X9703515Y-15666174D01*
X9703515Y-15666174D02*
X9713039Y-15628079D01*
X9713039Y-15628079D02*
X9722563Y-15609031D01*
X9722563Y-15609031D02*
X9732087Y-15599508D01*
X9732087Y-15599508D02*
X9751134Y-15589984D01*
X9903515Y-15770936D02*
X9913039Y-15780460D01*
X9913039Y-15780460D02*
X9903515Y-15789984D01*
X9903515Y-15789984D02*
X9893991Y-15780460D01*
X9893991Y-15780460D02*
X9903515Y-15770936D01*
X9903515Y-15770936D02*
X9903515Y-15789984D01*
X10103515Y-15789984D02*
X9989229Y-15789984D01*
X10046372Y-15789984D02*
X10046372Y-15589984D01*
X10046372Y-15589984D02*
X10027325Y-15618555D01*
X10027325Y-15618555D02*
X10008277Y-15637603D01*
X10008277Y-15637603D02*
X9989229Y-15647127D01*
X10179706Y-15609031D02*
X10189229Y-15599508D01*
X10189229Y-15599508D02*
X10208277Y-15589984D01*
X10208277Y-15589984D02*
X10255896Y-15589984D01*
X10255896Y-15589984D02*
X10274944Y-15599508D01*
X10274944Y-15599508D02*
X10284468Y-15609031D01*
X10284468Y-15609031D02*
X10293991Y-15628079D01*
X10293991Y-15628079D02*
X10293991Y-15647127D01*
X10293991Y-15647127D02*
X10284468Y-15675698D01*
X10284468Y-15675698D02*
X10170182Y-15789984D01*
X10170182Y-15789984D02*
X10293991Y-15789984D01*
X10465420Y-15589984D02*
X10427325Y-15589984D01*
X10427325Y-15589984D02*
X10408277Y-15599508D01*
X10408277Y-15599508D02*
X10398753Y-15609031D01*
X10398753Y-15609031D02*
X10379706Y-15637603D01*
X10379706Y-15637603D02*
X10370182Y-15675698D01*
X10370182Y-15675698D02*
X10370182Y-15751888D01*
X10370182Y-15751888D02*
X10379706Y-15770936D01*
X10379706Y-15770936D02*
X10389229Y-15780460D01*
X10389229Y-15780460D02*
X10408277Y-15789984D01*
X10408277Y-15789984D02*
X10446372Y-15789984D01*
X10446372Y-15789984D02*
X10465420Y-15780460D01*
X10465420Y-15780460D02*
X10474944Y-15770936D01*
X10474944Y-15770936D02*
X10484468Y-15751888D01*
X10484468Y-15751888D02*
X10484468Y-15704269D01*
X10484468Y-15704269D02*
X10474944Y-15685222D01*
X10474944Y-15685222D02*
X10465420Y-15675698D01*
X10465420Y-15675698D02*
X10446372Y-15666174D01*
X10446372Y-15666174D02*
X10408277Y-15666174D01*
X10408277Y-15666174D02*
X10389229Y-15675698D01*
X10389229Y-15675698D02*
X10379706Y-15685222D01*
X10379706Y-15685222D02*
X10370182Y-15704269D01*
X10608277Y-15589984D02*
X10627325Y-15589984D01*
X10627325Y-15589984D02*
X10646372Y-15599508D01*
X10646372Y-15599508D02*
X10655896Y-15609031D01*
X10655896Y-15609031D02*
X10665420Y-15628079D01*
X10665420Y-15628079D02*
X10674944Y-15666174D01*
X10674944Y-15666174D02*
X10674944Y-15713793D01*
X10674944Y-15713793D02*
X10665420Y-15751888D01*
X10665420Y-15751888D02*
X10655896Y-15770936D01*
X10655896Y-15770936D02*
X10646372Y-15780460D01*
X10646372Y-15780460D02*
X10627325Y-15789984D01*
X10627325Y-15789984D02*
X10608277Y-15789984D01*
X10608277Y-15789984D02*
X10589229Y-15780460D01*
X10589229Y-15780460D02*
X10579706Y-15770936D01*
X10579706Y-15770936D02*
X10570182Y-15751888D01*
X10570182Y-15751888D02*
X10560658Y-15713793D01*
X10560658Y-15713793D02*
X10560658Y-15666174D01*
X10560658Y-15666174D02*
X10570182Y-15628079D01*
X10570182Y-15628079D02*
X10579706Y-15609031D01*
X10579706Y-15609031D02*
X10589229Y-15599508D01*
X10589229Y-15599508D02*
X10608277Y-15589984D01*
X10751134Y-15589984D02*
X10751134Y-15628079D01*
X10827325Y-15589984D02*
X10827325Y-15628079D01*
X11122563Y-15866174D02*
X11113039Y-15856650D01*
X11113039Y-15856650D02*
X11093991Y-15828079D01*
X11093991Y-15828079D02*
X11084468Y-15809031D01*
X11084468Y-15809031D02*
X11074944Y-15780460D01*
X11074944Y-15780460D02*
X11065420Y-15732841D01*
X11065420Y-15732841D02*
X11065420Y-15694746D01*
X11065420Y-15694746D02*
X11074944Y-15647127D01*
X11074944Y-15647127D02*
X11084468Y-15618555D01*
X11084468Y-15618555D02*
X11093991Y-15599508D01*
X11093991Y-15599508D02*
X11113039Y-15570936D01*
X11113039Y-15570936D02*
X11122563Y-15561412D01*
X11284468Y-15656650D02*
X11284468Y-15789984D01*
X11236848Y-15580460D02*
X11189229Y-15723317D01*
X11189229Y-15723317D02*
X11313039Y-15723317D01*
X11541610Y-15789984D02*
X11541610Y-15589984D01*
X11627325Y-15789984D02*
X11627325Y-15685222D01*
X11627325Y-15685222D02*
X11617801Y-15666174D01*
X11617801Y-15666174D02*
X11598753Y-15656650D01*
X11598753Y-15656650D02*
X11570182Y-15656650D01*
X11570182Y-15656650D02*
X11551134Y-15666174D01*
X11551134Y-15666174D02*
X11541610Y-15675698D01*
X11751134Y-15789984D02*
X11732087Y-15780460D01*
X11732087Y-15780460D02*
X11722563Y-15770936D01*
X11722563Y-15770936D02*
X11713039Y-15751888D01*
X11713039Y-15751888D02*
X11713039Y-15694746D01*
X11713039Y-15694746D02*
X11722563Y-15675698D01*
X11722563Y-15675698D02*
X11732087Y-15666174D01*
X11732087Y-15666174D02*
X11751134Y-15656650D01*
X11751134Y-15656650D02*
X11779706Y-15656650D01*
X11779706Y-15656650D02*
X11798753Y-15666174D01*
X11798753Y-15666174D02*
X11808277Y-15675698D01*
X11808277Y-15675698D02*
X11817801Y-15694746D01*
X11817801Y-15694746D02*
X11817801Y-15751888D01*
X11817801Y-15751888D02*
X11808277Y-15770936D01*
X11808277Y-15770936D02*
X11798753Y-15780460D01*
X11798753Y-15780460D02*
X11779706Y-15789984D01*
X11779706Y-15789984D02*
X11751134Y-15789984D01*
X11932087Y-15789984D02*
X11913039Y-15780460D01*
X11913039Y-15780460D02*
X11903515Y-15761412D01*
X11903515Y-15761412D02*
X11903515Y-15589984D01*
X12084468Y-15780460D02*
X12065420Y-15789984D01*
X12065420Y-15789984D02*
X12027325Y-15789984D01*
X12027325Y-15789984D02*
X12008277Y-15780460D01*
X12008277Y-15780460D02*
X11998753Y-15761412D01*
X11998753Y-15761412D02*
X11998753Y-15685222D01*
X11998753Y-15685222D02*
X12008277Y-15666174D01*
X12008277Y-15666174D02*
X12027325Y-15656650D01*
X12027325Y-15656650D02*
X12065420Y-15656650D01*
X12065420Y-15656650D02*
X12084468Y-15666174D01*
X12084468Y-15666174D02*
X12093991Y-15685222D01*
X12093991Y-15685222D02*
X12093991Y-15704269D01*
X12093991Y-15704269D02*
X11998753Y-15723317D01*
X12170182Y-15780460D02*
X12189230Y-15789984D01*
X12189230Y-15789984D02*
X12227325Y-15789984D01*
X12227325Y-15789984D02*
X12246372Y-15780460D01*
X12246372Y-15780460D02*
X12255896Y-15761412D01*
X12255896Y-15761412D02*
X12255896Y-15751888D01*
X12255896Y-15751888D02*
X12246372Y-15732841D01*
X12246372Y-15732841D02*
X12227325Y-15723317D01*
X12227325Y-15723317D02*
X12198753Y-15723317D01*
X12198753Y-15723317D02*
X12179706Y-15713793D01*
X12179706Y-15713793D02*
X12170182Y-15694746D01*
X12170182Y-15694746D02*
X12170182Y-15685222D01*
X12170182Y-15685222D02*
X12179706Y-15666174D01*
X12179706Y-15666174D02*
X12198753Y-15656650D01*
X12198753Y-15656650D02*
X12227325Y-15656650D01*
X12227325Y-15656650D02*
X12246372Y-15666174D01*
X12322563Y-15866174D02*
X12332087Y-15856650D01*
X12332087Y-15856650D02*
X12351134Y-15828079D01*
X12351134Y-15828079D02*
X12360658Y-15809031D01*
X12360658Y-15809031D02*
X12370182Y-15780460D01*
X12370182Y-15780460D02*
X12379706Y-15732841D01*
X12379706Y-15732841D02*
X12379706Y-15694746D01*
X12379706Y-15694746D02*
X12370182Y-15647127D01*
X12370182Y-15647127D02*
X12360658Y-15618555D01*
X12360658Y-15618555D02*
X12351134Y-15599508D01*
X12351134Y-15599508D02*
X12332087Y-15570936D01*
X12332087Y-15570936D02*
X12322563Y-15561412D01*
M02*
